<?xml version="1.0" encoding="utf-8"?>
<!-- Generator: Adobe Illustrator 16.2.0, SVG Export Plug-In . SVG Version: 6.00 Build 0)  -->
<!DOCTYPE svg PUBLIC "-//W3C//DTD SVG 1.1//EN" "http://www.w3.org/Graphics/SVG/1.1/DTD/svg11.dtd">
<svg version="1.1" id="Layer_1" xmlns="http://www.w3.org/2000/svg" xmlns:xlink="http://www.w3.org/1999/xlink" x="0px" y="0px"
	 width="48px" height="48px" viewBox="0 0 48 48" enable-background="new 0 0 48 48" xml:space="preserve">
<g>
	<path fill="#333333" d="M31.498,17.374C30.035,10.838,31.139,7,31.139,7s-3.279,1.797-3.033,5.549
		c0.478,7.261,4.177,11.802,1.185,16.311C29.29,28.859,33.972,28.429,31.498,17.374z"/>
	<path fill="#B3B3B3" d="M38.542,18.24c0,0-8.642-8.644-8.644-8.645c-0.043-0.044-0.301,0.53-0.317,0.593
		c-0.054,0.196-0.11,0.32-0.126,0.521c-0.007,0.092-0.029,0.438,0.039,0.513l8.032,8.033L38.542,18.24z"/>
	<path fill="#333333" d="M17.54,41c0,0,2.911-2.115,2.632-7.022c-0.278-4.908-3.181-13.991-0.309-16.116l0.943-1.151
		c0,0-4.306,2.303-4.225,8.25C16.664,30.906,19.175,33.579,17.54,41z"/>
	<path fill="#B3B3B3" d="M22.465,17.345l8.604,8.606c0.125-0.318,0.228-0.648,0.264-0.99c0.021-0.209,0.057-0.722-0.113-0.89
		l-7.739-7.742L22.465,17.345z"/>
	<path fill="#B3B3B3" d="M17.739,23.548l7.363,7.396l1.016-1.016l-8.244-8.251C17.713,22.302,17.695,22.908,17.739,23.548z"/>
	<path fill="#B3B3B3" d="M18.654,19.001l10.458,10.473l1.016-1.016L19.475,17.787l-0.06,0.079c0,0-0.644,0.594-0.771,1.033
		C18.639,18.918,18.654,19.001,18.654,19.001z"/>
	<path fill="#666666" d="M30.745,16.382c6.357,2.114,10.375,0.359,10.375,0.359s-1.799,3.279-5.548,3.031
		c-1.067-0.07-2.131-0.204-3.174-0.444c-0.765-0.176-1.506-0.411-2.242-0.682c-0.624-0.229-1.238-0.486-1.869-0.692
		c-0.678-0.221-1.38-0.39-2.086-0.476c-1.251-0.152-2.543-0.204-3.794-0.065c-0.774,0.086-1.581,0.286-2.294,0.622
		c-0.531,0.249-1.012,0.594-1.467,0.962c-0.114,0.093-0.229,0.187-0.342,0.279c-0.074,0.061-0.255,0.156-0.297,0.241
		C18.008,19.518,21.102,13.174,30.745,16.382z"/>
	<path fill="#B3B3B3" d="M10.202,29.099c0,0,8.587,8.589,8.604,8.605c0.104-0.066,0.18-0.287,0.219-0.406
		c0.074-0.224,0.117-0.612,0.121-0.848c0.003-0.144,0.039-0.416-0.076-0.529l-7.852-7.839L10.202,29.099z"/>
	<path fill="#666666" d="M6.88,30.581c0,0,2.115-2.912,7.022-2.635c4.906,0.279,12.258,2.691,15.72,0.561
		c0.716-0.44,1.795-1.396,1.795-1.396s-2.382,4.531-8.498,4.428C16.975,31.438,14.303,28.944,6.88,30.581z"/>
</g>
</svg>
