<?xml version="1.0" encoding="utf-8"?>
<!-- Generator: Adobe Illustrator 22.0.1, SVG Export Plug-In . SVG Version: 6.00 Build 0)  -->
<svg version="1.1" id="Layer_1" xmlns="http://www.w3.org/2000/svg" xmlns:xlink="http://www.w3.org/1999/xlink" x="0px" y="0px"
	 viewBox="-102.5 -136.5 48 48" enable-background="new -102.5 -136.5 48 48" xml:space="preserve">
<g>
	
		<rect x="-92.591" y="-131.117" transform="matrix(4.490612e-11 1 -1 4.490612e-11 -208.4328 -32.9921)" fill="#333333" width="9.742" height="20.809"/>
	
		<rect x="-69.777" y="-126.743" transform="matrix(4.490612e-11 1 -1 4.490612e-11 -185.6184 -55.8066)" fill="#333333" width="9.742" height="12.062"/>
	
		<rect x="-74.15" y="-114.692" transform="matrix(4.481286e-11 1 -1 4.481286e-11 -173.5672 -35.0079)" fill="#333333" width="9.742" height="20.809"/>
	
		<rect x="-96.965" y="-110.318" transform="matrix(4.481286e-11 1 -1 4.481286e-11 -196.3816 -12.1934)" fill="#333333" width="9.742" height="12.062"/>
	
		<rect x="-83.851" y="-109.151" transform="matrix(4.502513e-11 1 -1 4.502513e-11 -186.8056 -21.7695)" fill="#333333" width="2.666" height="9.728"/>
	
		<rect x="-76.153" y="-125.576" transform="matrix(4.502513e-11 1 -1 4.502513e-11 -195.5328 -45.8922)" fill="#333333" width="2.666" height="9.728"/>
</g>
</svg>
