<?xml version="1.0" encoding="utf-8"?>
<!-- Generator: Adobe Illustrator 23.0.4, SVG Export Plug-In . SVG Version: 6.00 Build 0)  -->
<svg version="1.1" id="Layer_1" xmlns="http://www.w3.org/2000/svg" xmlns:xlink="http://www.w3.org/1999/xlink" x="0px" y="0px"
	 viewBox="0 0 48 48" style="enable-background:new 0 0 48 48;" xml:space="preserve">
<style type="text/css">
	.st0{fill:#333333;}
	.st1{fill:#FFFFFF;}
</style>
<g>
	<path class="st0" d="M19.4,6.6C19.4,6.6,19.4,6.6,19.4,6.6c-0.1,0-0.3,0-0.5,0c-0.2,0-0.3,0-0.5,0c0,0-0.1,0-0.1,0c0,0,0,0-0.1,0
		c-0.1,0-0.2,0-0.2,0c-0.2,0-0.3,0-0.5,0.1c-0.1,0-0.1,0-0.2,0c-0.1,0-0.2,0-0.3,0c0,0-0.1,0-0.1,0l-0.1,0c-0.1,0-0.2,0-0.2,0.1
		c-0.1,0-0.2,0.1-0.3,0.1c0,0-0.1,0-0.1,0l-0.1,0c-0.1,0-0.3,0.1-0.4,0.1c0,0,0,0-0.1,0c0,0-0.1,0-0.1,0.1c-0.1,0-0.1,0.1-0.2,0.1
		c-0.1,0-0.2,0.1-0.3,0.1c-0.2,0.1-0.4,0.1-0.6,0.2c-0.1,0-0.2,0.1-0.3,0.1l-0.1,0c-0.1,0.1-0.3,0.1-0.4,0.2c-0.1,0-0.1,0.1-0.2,0.1
		c-0.1,0-0.1,0.1-0.2,0.1l0,0c-0.1,0.1-0.2,0.1-0.4,0.2c-0.1,0-0.1,0.1-0.2,0.1c-0.1,0-0.1,0.1-0.2,0.1c-0.1,0-0.1,0.1-0.2,0.1
		c-0.1,0-0.1,0.1-0.2,0.1c-0.1,0.1-0.3,0.2-0.4,0.2c-0.1,0.1-0.1,0.1-0.2,0.1c0,0-0.1,0.1-0.1,0.1l0,0l-0.1,0.1
		c-0.1,0.1-0.2,0.2-0.3,0.3c-0.1,0.1-0.3,0.2-0.4,0.3c0,0-0.1,0.1-0.1,0.1c0,0,0,0,0,0c0,0-0.1,0.1-0.1,0.1c0,0,0,0-0.1,0.1
		c0,0-0.1,0.1-0.1,0.1l-0.2,0.2c-0.1,0.1-0.2,0.2-0.3,0.3L9.4,11c0,0-0.1,0.1-0.1,0.1c0,0,0,0-0.1,0.1c-0.1,0.1-0.2,0.2-0.3,0.3l0,0
		c0,0-0.1,0.1-0.1,0.1c0,0,0,0-0.1,0.1c0,0-0.1,0.1-0.1,0.1c0,0,0,0-0.1,0.1c-0.1,0.1-0.1,0.2-0.2,0.2c0,0-0.1,0.1-0.1,0.1
		c-0.1,0.1-0.2,0.2-0.2,0.3c-0.2,0.3-0.4,0.5-0.5,0.8C7.3,13.7,7.1,14,7,14.2l0,0c-0.2,0.3-0.3,0.5-0.5,0.8l-0.1,0.1
		c-0.1,0.2-0.3,0.5-0.4,0.7c-0.1,0.1-0.2,0.3-0.2,0.4c0,0,0,0.1-0.1,0.1c0,0,0,0.1-0.1,0.1l0,0c0,0.1-0.1,0.1-0.1,0.2
		c-0.1,0.3-0.3,0.5-0.4,0.8C5,17.7,4.9,18,4.7,18.3c0,0.1-0.1,0.2-0.1,0.3l0,0.1c-0.1,0.1-0.1,0.3-0.2,0.4l0,0
		c-0.1,0.1-0.1,0.3-0.2,0.4c-0.1,0.2-0.1,0.3-0.2,0.4C4,20.1,4,20.3,3.9,20.4l0,0.1c-0.1,0.1-0.1,0.3-0.2,0.4l0,0
		c0,0.1,0,0.1-0.1,0.2c0,0.1,0,0.1-0.1,0.2c-0.1,0.2-0.1,0.3-0.2,0.5c-0.1,0.3-0.2,0.6-0.3,0.8l0,0.1C3.1,23,3,23.3,2.9,23.6
		c0,0.2-0.1,0.3-0.1,0.4c0,0.2-0.1,0.3-0.1,0.5c0,0.1,0,0.2,0,0.3c0,0.1,0,0.1,0,0.2c0,0.2-0.1,0.3-0.1,0.5c0,0,0,0,0,0c0,0,0,0,0,0
		c0,0.1,0,0.1,0,0.2c0,0.1,0,0.2-0.1,0.3c0,0.1,0,0.3,0,0.4c0,0.3,0,0.6,0,0.9l0,0c0,0.3,0,0.6,0,0.9c0,0.1,0,0.3,0,0.4
		c0,0.1,0,0.1,0,0.2c0,0.1,0,0.2,0,0.3c0,0.2,0,0.3,0.1,0.4c0,0.1,0.1,0.3,0.1,0.4c0,0.1,0,0.1,0,0.2c0,0.1,0,0.2,0.1,0.3
		c0,0,0,0,0,0.1c0,0.1,0,0.1,0,0.2c0,0.1,0.1,0.2,0.1,0.2c0.1,0.1,0.1,0.3,0.2,0.4l0,0c0.1,0.2,0.1,0.3,0.2,0.5c0,0,0,0,0,0.1
		c0,0,0,0,0,0l0,0.1l0,0.1c0,0.1,0.1,0.1,0.1,0.2l0,0l0,0c0,0,0.1,0.1,0.1,0.1l0,0.1c0,0,0.1,0.1,0.1,0.1c0.1,0.1,0.2,0.3,0.3,0.4
		c0.1,0.1,0.2,0.2,0.3,0.3c0.1,0.1,0.2,0.3,0.3,0.4c0.1,0.1,0.1,0.1,0.1,0.2c0.1,0.1,0.1,0.1,0.2,0.2C5.2,34,5.2,34,5.3,34.1l0,0
		c0,0,0.1,0.1,0.1,0.1l0,0c0.1,0.1,0.2,0.2,0.3,0.2l0.1,0.1c0.1,0.1,0.2,0.2,0.4,0.3c0.1,0,0.1,0.1,0.2,0.1c0,0,0.1,0.1,0.2,0.1l0,0
		c0.1,0.1,0.3,0.2,0.4,0.2c0.1,0,0.1,0.1,0.2,0.1c0.1,0,0.1,0.1,0.2,0.1l0.1,0c0.1,0,0.2,0.1,0.3,0.1c0.1,0,0.1,0,0.2,0.1
		c0.1,0,0.2,0.1,0.3,0.1c0,0,0,0,0.1,0c0,0,0.1,0,0.1,0c0.1,0,0.2,0,0.3,0.1c0,0,0.1,0,0.1,0C8.9,36,9,36,9.1,36c0.1,0,0.2,0,0.3,0
		c0.1,0,0.1,0,0.2,0c0.2,0,0.3,0,0.5,0c0.1,0,0.2,0,0.2,0c0,0,0.1,0,0.1,0c0,0,0,0,0.1,0c0,0,0.1,0,0.1,0l0.1,0l0.1,0
		c0,0,0.1,0,0.1,0l0,0c0.1,0,0.1,0,0.2-0.1l0,0c0.1,0,0.1,0,0.2-0.1c0.1,0,0.2,0,0.2-0.1l0,0c0.1,0,0.1,0,0.2-0.1
		c0.1,0,0.2-0.1,0.2-0.1c0.1,0,0.1,0,0.2-0.1l0,0l0.1,0c0.1,0,0.1,0,0.2-0.1l0.1,0c0,0,0.1,0,0.1,0c0.1,0,0.1-0.1,0.2-0.1
		c0,0,0.1,0,0.1-0.1c0.1,0,0.1-0.1,0.2-0.1c0.1,0,0.1-0.1,0.2-0.1c0.1-0.1,0.3-0.2,0.4-0.3c0.1-0.1,0.2-0.2,0.3-0.3
		c0.1-0.1,0.1-0.1,0.2-0.2c0,0,0.1-0.1,0.1-0.1l0,0c0.1-0.1,0.2-0.2,0.3-0.3c0,0,0-0.1,0.1-0.1c0.1-0.1,0.1-0.1,0.2-0.2
		c0,0,0.1-0.1,0.1-0.1l0,0l0,0c0-0.1,0.1-0.1,0.1-0.2l0,0c0.1-0.1,0.1-0.2,0.2-0.3c0.1-0.1,0.1-0.2,0.1-0.3l0-0.1
		c0.1-0.1,0.1-0.3,0.2-0.4c0.1-0.3,0.2-0.5,0.2-0.8c0-0.1,0.1-0.3,0.1-0.4c0-0.1,0.1-0.3,0.1-0.5c0-0.1,0-0.2,0-0.2
		c0-0.1,0-0.1,0-0.2c0-0.2,0-0.3,0.1-0.5c0-0.2,0.1-0.5,0.1-0.7l0-0.2c0-0.2,0.1-0.4,0.1-0.6l0-0.2c0-0.3,0.1-0.6,0.1-0.9
		c0.1-0.3,0.1-0.6,0.2-0.8c0-0.1,0-0.1,0-0.2c0-0.1,0-0.2,0.1-0.3c0-0.1,0.1-0.2,0.1-0.3l0-0.1c0.1-0.3,0.2-0.6,0.3-0.9
		c0-0.2,0.1-0.3,0.2-0.5c0.1-0.2,0.1-0.3,0.2-0.5l0,0c0-0.1,0.1-0.2,0.1-0.3c0,0,0-0.1,0.1-0.1c0-0.1,0.1-0.1,0.1-0.2
		c0-0.1,0-0.1,0.1-0.2c0.1-0.2,0.2-0.3,0.3-0.5c0,0,0-0.1,0.1-0.1c0-0.1,0.1-0.1,0.1-0.2c0.1-0.1,0.1-0.2,0.2-0.3l0,0
		c0.1-0.2,0.3-0.4,0.4-0.6c0,0,0,0,0-0.1c0,0,0.1-0.1,0.1-0.1c0.1-0.1,0.1-0.1,0.2-0.2c0.1-0.1,0.2-0.2,0.4-0.3l0.1-0.1
		c0.1-0.1,0.2-0.2,0.3-0.3c0.1-0.1,0.3-0.2,0.4-0.3c0.1-0.1,0.2-0.2,0.4-0.3c0.1-0.1,0.1-0.1,0.2-0.2l0.1-0.1
		c0.1-0.1,0.3-0.2,0.4-0.3l0.1-0.1l0.1,0l0,0c0,0,0,0,0.1,0c0,0,0,0,0,0c0,0,0,0,0.1,0c0.1-0.1,0.3-0.2,0.4-0.3
		c0.1-0.1,0.2-0.1,0.3-0.2l0.1-0.1c0.1-0.1,0.2-0.1,0.3-0.2c0,0,0.1-0.1,0.1-0.1c0.1-0.1,0.2-0.1,0.3-0.2l0.1,0
		c0.1,0,0.2-0.1,0.2-0.1l0.2-0.1c0,0,0,0,0.1,0c0,0,0.1,0,0.1-0.1c0,0,0.1-0.1,0.1-0.1c0.2-0.1,0.4-0.3,0.6-0.5
		c0.1,0,0.1-0.1,0.2-0.1c0,0,0,0,0.1-0.1c0,0,0,0,0,0c0,0,0,0,0,0l0.1-0.1c0,0,0.1-0.1,0.1-0.1l0,0c0.1-0.1,0.1-0.1,0.2-0.2
		c0.1-0.1,0.2-0.2,0.2-0.3c0-0.1,0.1-0.1,0.1-0.2c0-0.1,0.1-0.1,0.1-0.2c0-0.1,0.1-0.1,0.1-0.2c0-0.1,0.1-0.1,0.1-0.2
		c0-0.1,0.1-0.1,0.1-0.2l0,0c0-0.1,0.1-0.1,0.1-0.2c0-0.1,0.1-0.1,0.1-0.2c0-0.1,0-0.1,0.1-0.2c0-0.1,0-0.2,0.1-0.2
		c0-0.1,0-0.1,0-0.2c0,0,0-0.1,0-0.1c0-0.1,0-0.2,0.1-0.3c0-0.2,0-0.3,0-0.5c0-0.1,0-0.3,0-0.5c0-0.1,0-0.2,0-0.2c0,0,0-0.1,0-0.1
		c0,0,0,0,0,0c0,0,0-0.1,0-0.1c0,0,0-0.1,0-0.1c0,0,0,0,0-0.1c0,0,0,0,0,0c0-0.1,0-0.1-0.1-0.2c0,0,0,0,0,0c0-0.1-0.1-0.1-0.1-0.2
		l0,0c0-0.1-0.1-0.2-0.1-0.2c-0.1-0.1-0.1-0.3-0.2-0.4l0,0c-0.1-0.1-0.2-0.3-0.3-0.4c0,0-0.1-0.1-0.1-0.1c0,0,0,0,0-0.1l0,0
		c0,0-0.1-0.1-0.1-0.1c-0.2-0.2-0.4-0.4-0.6-0.6l0,0c0,0-0.1-0.1-0.1-0.1c-0.1,0-0.1-0.1-0.2-0.1c-0.1-0.1-0.2-0.2-0.4-0.3
		C24,8.1,23.9,8,23.9,8c-0.1,0-0.1-0.1-0.2-0.1l0,0c-0.1-0.1-0.3-0.2-0.4-0.2c-0.1,0-0.2-0.1-0.3-0.1c0,0-0.1,0-0.1-0.1
		c-0.1,0-0.1-0.1-0.2-0.1c-0.1,0-0.2-0.1-0.2-0.1c-0.1,0-0.2-0.1-0.4-0.1C22,7.1,21.8,7,21.6,7c0,0-0.1,0-0.1-0.1
		c-0.1,0-0.2-0.1-0.3-0.1c-0.1,0-0.1,0-0.2-0.1l0,0c-0.1,0-0.1,0-0.2-0.1c-0.2,0-0.3-0.1-0.5-0.1c-0.2,0-0.3,0-0.5,0
		c-0.1,0-0.1,0-0.2,0c0,0,0,0-0.1,0C19.6,6.6,19.5,6.6,19.4,6.6L19.4,6.6L19.4,6.6z"/>
	<path class="st0" d="M37.9,5.9c-0.1,0-0.3,0-0.4,0c-0.1,0-0.3,0-0.4,0.1L37,6c-0.1,0-0.1,0-0.2,0l0,0c-0.1,0-0.1,0-0.2,0.1
		c-0.2,0.1-0.3,0.1-0.5,0.2c-0.2,0.1-0.3,0.2-0.5,0.3c-0.1,0.1-0.3,0.2-0.4,0.3l0,0L35,7c0,0,0,0,0,0c0,0-0.1,0-0.1,0.1l-0.2,0.1
		l0,0c0,0-0.1,0.1-0.1,0.1l-0.2,0.2c0,0-0.1,0.1-0.1,0.1c0,0,0,0,0,0l0,0c0,0-0.1,0.1-0.1,0.1l-0.1,0.1L34.1,8c0,0,0,0.1-0.1,0.1
		c0,0,0,0,0,0c0,0,0,0,0,0c0,0,0,0.1-0.1,0.1l0,0.1c0,0.1-0.1,0.2-0.1,0.3c-0.1,0.1-0.1,0.3-0.2,0.4c0,0,0,0.1-0.1,0.1
		c0,0,0,0,0,0.1c0,0,0,0.1-0.1,0.1c0,0,0,0,0,0.1c0,0.1-0.1,0.3-0.1,0.4c0,0.1,0,0.2,0,0.2l0,0c0,0.1,0,0.1,0,0.2c0,0,0,0,0,0.1
		c0,0,0,0.1,0,0.1c0,0.3,0,0.5,0,0.8c0,0.4,0,0.7,0,1.1c0,0.2,0,0.3,0,0.5c0,0.1,0,0.3,0,0.4l0,0.1c0,0.1,0,0.2,0,0.3
		c0,0.1,0,0.2,0,0.2c0,0.4,0,0.8-0.1,1.2c0,0.1,0,0.2-0.1,0.3c0,0.1,0,0.2-0.1,0.2l0,0.1l-0.1,0.1c0,0,0,0.1-0.1,0.1l0,0.1
		c0,0,0,0.1-0.1,0.1l0,0c0,0.1-0.1,0.1-0.1,0.2l0,0.1l0,0.1c0,0,0,0,0,0.1c0,0,0,0,0,0l0,0.1l0,0.1l0,0c0,0,0,0,0,0L32.1,17
		c-0.1,0.1-0.1,0.2-0.2,0.3l0,0c-0.1,0.1-0.2,0.2-0.3,0.3c-0.1,0.1-0.2,0.2-0.2,0.3c-0.1,0.1-0.2,0.2-0.2,0.3
		c-0.1,0.1-0.1,0.1-0.2,0.2c0,0-0.1,0.1-0.1,0.1c-0.1,0.1-0.2,0.2-0.3,0.3c-0.1,0.1-0.1,0.1-0.2,0.2c0,0-0.1,0.1-0.1,0.1
		c0,0-0.1,0.1-0.1,0.1c0,0-0.1,0.1-0.1,0.1l0,0c-0.1,0-0.1,0.1-0.2,0.1c0,0-0.1,0.1-0.1,0.1l0,0c-0.1,0.1-0.2,0.1-0.4,0.2
		c0,0-0.1,0-0.1,0.1c-0.1,0-0.1,0.1-0.2,0.1c0,0-0.1,0-0.1,0.1c0,0,0,0-0.1,0l-0.1,0c-0.1,0-0.1,0.1-0.2,0.1c-0.1,0-0.2,0.1-0.3,0.1
		c0,0,0,0,0,0l0,0l0,0c0,0,0,0,0,0c0,0-0.1,0-0.1,0.1c0,0,0,0-0.1,0c-0.1,0-0.1,0.1-0.2,0.1c0,0-0.1,0-0.1,0.1l0,0c0,0-0.1,0-0.1,0
		l0,0c0,0-0.1,0-0.1,0c-0.1,0-0.1,0.1-0.2,0.1c0,0-0.1,0-0.1,0.1c0,0,0,0-0.1,0l0,0c0,0-0.1,0-0.1,0.1c0,0,0,0,0,0l0,0
		c0,0-0.1,0-0.1,0l0,0c-0.1,0-0.2,0.1-0.3,0.2c-0.1,0-0.1,0.1-0.2,0.1c-0.1,0-0.1,0.1-0.1,0.1c0,0-0.1,0.1-0.1,0.1
		c-0.1,0-0.1,0.1-0.2,0.2l0,0c0,0-0.1,0.1-0.1,0.1c0,0.1-0.1,0.1-0.1,0.2c-0.1,0.2-0.2,0.3-0.3,0.5l-0.1,0.1
		c-0.1,0.2-0.2,0.4-0.3,0.7c-0.1,0.2-0.2,0.5-0.2,0.7c0,0.1-0.1,0.2-0.1,0.4c0,0.1,0,0.1,0,0.2l0,0c0,0.1,0,0.1,0,0.2
		c0,0.3,0,0.5,0,0.7c0,0.1,0,0.2,0,0.3c0,0.1,0,0.1,0,0.2c0,0.1,0,0.1,0,0.2l0,0c0,0.1,0.1,0.2,0.1,0.3c0,0.1,0.1,0.1,0.1,0.2
		c0,0,0,0.1,0.1,0.1l0,0c0,0,0,0.1,0.1,0.1c0,0,0,0,0,0c0,0,0,0.1,0.1,0.1c0,0,0,0,0,0c0,0,0.1,0.1,0.1,0.1l0,0
		c0,0.1,0.1,0.1,0.1,0.2l0,0c0.1,0.1,0.1,0.2,0.2,0.3c0.1,0.1,0.2,0.2,0.3,0.3c0.1,0.1,0.1,0.1,0.2,0.2c0.1,0.1,0.1,0.1,0.2,0.2
		c0.1,0.1,0.2,0.2,0.3,0.2c0.1,0.1,0.2,0.1,0.4,0.2l0.1,0.1l0,0c0,0,0.1,0,0.1,0.1l0,0c0.1,0.1,0.2,0.1,0.3,0.2l0,0
		c0,0,0.1,0,0.1,0.1c0.1,0,0.2,0.1,0.2,0.1c0.1,0,0.1,0,0.2,0.1l0.1,0l0,0c0.1,0,0.2,0.1,0.3,0.1c0.1,0,0.3,0.1,0.4,0.1
		c0,0,0.1,0,0.1,0c0,0,0,0,0.1,0c0,0,0.1,0,0.1,0l0.1,0c0.1,0,0.3,0,0.4,0.1c0.1,0,0.2,0,0.3,0l0.1,0c0,0,0.1,0,0.1,0l0.1,0l0.1,0
		c0,0,0.1,0,0.1,0c0,0,0.1,0,0.1,0c0.1,0,0.2,0,0.3,0l0.1,0l0.1,0l0,0c0,0,0.1,0,0.1,0l0,0c0,0,0.1,0,0.1,0c0.1,0,0.2,0,0.3,0
		c0,0,0.1,0,0.1,0c0.1,0,0.2,0,0.3,0l0.2,0l0.2,0c0,0,0.1,0,0.1,0l0,0l0.3,0l0,0c0.1,0,0.2,0,0.3,0l0.1,0l0.2,0c0,0,0.1,0,0.1,0l0,0
		c0,0,0.1,0,0.1,0c0.1,0,0.2,0,0.3-0.1c0.3-0.1,0.5-0.1,0.8-0.2c0.1,0,0.2,0,0.3-0.1c0,0,0.1,0,0.1,0c0.1,0,0.2,0,0.3-0.1
		c0,0,0.1,0,0.1,0c0.3-0.1,0.5-0.2,0.7-0.2c0,0,0.1,0,0.1,0c0,0,0,0,0,0c0,0,0,0,0.1,0c0.1,0,0.1,0,0.2-0.1l0.1,0l0.1,0
		c0,0,0,0,0.1,0c0,0,0.1,0,0.1-0.1c0,0,0.1,0,0.1,0c0.1,0,0.1-0.1,0.2-0.1c0,0,0.1,0,0.1-0.1c0.1,0,0.2-0.1,0.2-0.1
		c0.2-0.1,0.5-0.2,0.7-0.4l0,0c0.1-0.1,0.2-0.1,0.3-0.2l0,0c0,0,0.1,0,0.1-0.1c0,0,0,0,0.1,0c0,0,0.1,0,0.1-0.1
		c0.2-0.1,0.4-0.3,0.6-0.5l0.1-0.1c0.1,0,0.1-0.1,0.2-0.1c0,0,0.1,0,0.1-0.1c0.1-0.1,0.1-0.1,0.2-0.2c0.1-0.1,0.2-0.2,0.3-0.3
		c0.1-0.1,0.2-0.2,0.3-0.2l0.1-0.1c0.1-0.1,0.3-0.3,0.4-0.4l0.1-0.1c0.2-0.2,0.3-0.3,0.5-0.5c0,0,0,0,0.1-0.1
		c0.1-0.1,0.1-0.1,0.2-0.2l0-0.1c0.1-0.1,0.1-0.2,0.2-0.3l0,0c0.1-0.1,0.2-0.2,0.2-0.3c0.1-0.1,0.2-0.2,0.2-0.3l0.1-0.2l0.1-0.2
		c0-0.1,0.1-0.1,0.1-0.2c0,0,0-0.1,0.1-0.1c0.1-0.1,0.1-0.2,0.2-0.3l0.1-0.2c0,0,0-0.1,0.1-0.1c0,0,0,0,0,0l0,0c0,0,0-0.1,0.1-0.1
		l0.1-0.1l0.1-0.1c0,0,0-0.1,0-0.1c0,0,0,0,0,0c0,0,0,0,0-0.1c0,0,0-0.1,0.1-0.1l0.1-0.1c0.1-0.2,0.2-0.4,0.2-0.6
		c0-0.1,0.1-0.1,0.1-0.2c0,0,0-0.1,0-0.1l0-0.1l0-0.1c0,0,0,0,0-0.1c0,0,0-0.1,0.1-0.1l0.1-0.2l0.1-0.2c0,0,0-0.1,0-0.1c0,0,0,0,0,0
		l0-0.1l0-0.1c0,0,0-0.1,0-0.1c0,0,0,0,0-0.1c0,0,0,0,0-0.1c0,0,0-0.1,0-0.1c0.1-0.3,0.1-0.5,0.2-0.8c0-0.1,0-0.2,0.1-0.3l0-0.1
		c0-0.1,0-0.1,0-0.2c0,0,0-0.1,0-0.1c0,0,0,0,0-0.1l0-0.1l0-0.1c0,0,0-0.1,0-0.1c0,0,0,0,0-0.1l0-0.2c0,0,0-0.1,0-0.1c0,0,0,0,0-0.1
		c0-0.1,0-0.2,0-0.4l0-0.1c0-0.1,0-0.2,0-0.3l0-0.1c0-0.1,0-0.2,0-0.3c0,0,0-0.1,0-0.1c0-0.1,0-0.2,0-0.3l0-0.1l0-0.1c0,0,0,0,0-0.1
		c0,0,0-0.1,0-0.1l0-0.2l0-0.2c0-0.1,0-0.2,0-0.3c0,0,0-0.1,0-0.1c0-0.1,0-0.2,0-0.3c0,0,0-0.1,0-0.1c0,0,0-0.1,0-0.1c0,0,0,0,0-0.1
		l0-0.1l0-0.1c0,0,0-0.1,0-0.1c0,0,0,0,0-0.1c0-0.1,0-0.2,0-0.2c0,0,0-0.1,0-0.1c0,0,0,0,0-0.1l0-0.1c0,0,0-0.1,0-0.1l0-0.1
		c0-0.1,0-0.2,0-0.2c0,0,0-0.1,0-0.1c0-0.1,0-0.2,0-0.3c0,0,0-0.1,0-0.1c0-0.1,0-0.2-0.1-0.2l0-0.1c0-0.1,0-0.2-0.1-0.3
		c0-0.1-0.1-0.3-0.1-0.4c0-0.1-0.1-0.2-0.1-0.3l0-0.1c0-0.1-0.1-0.2-0.1-0.3c0,0,0-0.1,0-0.1c0,0,0-0.1,0-0.1l0,0
		c0-0.1-0.1-0.2-0.1-0.3c-0.1-0.1-0.1-0.3-0.2-0.4c0-0.1-0.1-0.1-0.1-0.1C44.1,9.1,44,9.1,44,9c-0.1-0.1-0.1-0.2-0.2-0.3l0-0.1
		c0,0,0-0.1-0.1-0.1c-0.1-0.1-0.2-0.2-0.2-0.3c-0.1-0.1-0.2-0.2-0.3-0.3l0,0c-0.1-0.1-0.2-0.2-0.3-0.3c-0.1,0-0.1-0.1-0.2-0.1l0,0
		c-0.1,0-0.1-0.1-0.2-0.1c0,0-0.1-0.1-0.1-0.1c-0.1,0-0.1-0.1-0.2-0.1C42.1,7.1,42,7,41.9,6.9c-0.1-0.1-0.2-0.1-0.3-0.2
		c-0.1-0.1-0.2-0.1-0.3-0.1l0,0L41,6.5c0,0-0.1,0-0.1-0.1c0,0,0,0-0.1,0c-0.1,0-0.1,0-0.1-0.1l-0.1,0l-0.1,0c0,0,0,0,0,0l0,0l-0.1,0
		l-0.1,0c-0.1,0-0.1,0-0.2,0l-0.1,0c-0.1,0-0.2-0.1-0.3-0.1c-0.1,0-0.1,0-0.2,0c0,0-0.1,0-0.1,0c0,0,0,0-0.1,0c-0.1,0-0.2,0-0.3,0
		c0,0-0.1,0-0.1,0c-0.1,0-0.1,0-0.2,0c0,0,0,0-0.1,0c0,0,0,0,0,0c0,0-0.1,0-0.1,0l-0.1,0c-0.1,0-0.2,0-0.3,0l-0.1,0L37.9,5.9
		C38,5.9,38,5.9,37.9,5.9L37.9,5.9L37.9,5.9z"/>
	<path class="st0" d="M23.4,31.3c-0.1,0-0.2,0-0.3,0c-0.1,0-0.2,0-0.3,0l0,0c-0.1,0-0.2,0-0.3,0l0,0c0,0-0.1,0-0.1,0
		c0,0-0.1,0-0.1,0c-0.1,0-0.1,0-0.2,0.1c-0.1,0-0.2,0.1-0.3,0.1l0,0c0,0-0.1,0-0.1,0.1l0,0l0,0c0,0-0.1,0-0.1,0.1
		c-0.1,0.1-0.2,0.1-0.3,0.2l0,0c0,0-0.1,0-0.1,0.1c0,0,0,0,0,0c0,0-0.1,0-0.1,0.1l-0.1,0.1l-0.1,0.1c0,0-0.1,0-0.1,0.1l0,0l0,0
		c0,0-0.1,0-0.1,0.1c0,0,0,0,0,0c0,0-0.1,0-0.1,0.1c-0.2,0.2-0.3,0.3-0.4,0.5L20,33.1c-0.1,0.1-0.2,0.3-0.4,0.4
		c-0.1,0.1-0.1,0.2-0.2,0.2c0,0.1-0.1,0.1-0.1,0.2c0,0,0,0,0,0.1c0,0.1-0.1,0.2-0.1,0.3l0,0l0,0c0,0,0,0.1,0,0.1l0,0l0,0
		c0,0.1-0.1,0.1-0.1,0.2c-0.1,0.2-0.1,0.4-0.2,0.7l0,0.1c0,0.1,0,0.2-0.1,0.3c0,0.1,0,0.2,0,0.3c0,0.1,0,0.1,0,0.2
		c0,0.1,0,0.3-0.1,0.4c0,0.2-0.1,0.4-0.1,0.6c0,0,0,0.1,0,0.1c0,0.1,0,0.1,0,0.2l0,0c0,0,0,0.1,0,0.1c0,0,0,0,0,0.1
		c0,0.1,0,0.2,0,0.2l0,0.1c0,0.2,0.1,0.4,0.1,0.6c0,0.1,0.1,0.2,0.1,0.3c0,0,0,0.1,0.1,0.1c0,0.1,0,0.1,0.1,0.2
		c0,0.1,0.1,0.2,0.1,0.2c0,0,0.1,0.1,0.1,0.1l0,0c0.1,0.1,0.1,0.1,0.2,0.2c0.1,0.1,0.1,0.2,0.2,0.2c0,0,0.1,0.1,0.1,0.1
		c0,0,0.1,0.1,0.1,0.1c0.1,0.1,0.2,0.2,0.4,0.3c0,0,0.1,0.1,0.1,0.1c0.1,0.1,0.1,0.1,0.2,0.2c0,0,0.1,0.1,0.1,0.1
		c0.1,0,0.2,0.1,0.2,0.1l0,0c0,0,0.1,0,0.1,0.1c0.1,0,0.1,0.1,0.2,0.1c0.1,0.1,0.2,0.1,0.4,0.1c0.1,0,0.2,0,0.2,0c0.1,0,0.2,0,0.3,0
		l0,0c0,0,0.1,0,0.1,0l0,0l0,0c0,0,0.1,0,0.1,0c0.1,0,0.1,0,0.2,0c0,0,0.1,0,0.1,0l0.1,0l0.1,0l0,0c0,0,0.1,0,0.1,0c0,0,0,0,0.1,0
		c0.2,0,0.3,0,0.5,0l0.2,0c0.1,0,0.1,0,0.2,0c0.1,0,0.3,0,0.4,0c0,0,0.1,0,0.1,0c0.1,0,0.3,0,0.4,0c0.1,0,0.1,0,0.2,0
		c0,0,0.1,0,0.1,0c0.1,0,0.2,0,0.2,0l0.1,0c0.1,0,0.2,0,0.4,0c0.1,0,0.2,0,0.2,0c0.2,0,0.4,0,0.6,0c0.2,0,0.4,0,0.6,0
		c0.4,0,0.8,0.1,1.1,0.1l0.1,0l0.1,0c0.2,0,0.4,0,0.5,0.1c0.1,0,0.2,0,0.3,0c0.1,0,0.2,0,0.4,0.1c0.1,0,0.2,0,0.3,0
		c0.1,0,0.2,0,0.3,0c0.2,0,0.4,0.1,0.6,0.1c0.5,0.1,0.9,0.1,1.2,0.1c0,0,0.1,0,0.1,0c0.1,0,0.1,0,0.2,0c0,0,0.1,0,0.1,0
		c0.1,0,0.1,0,0.2,0l0.1,0c0.1,0,0.3,0,0.4,0c0.1,0,0.1,0,0.2,0l0.2,0l0.2,0c0.1,0,0.2,0,0.2,0c0,0,0.1,0,0.1,0c0.1,0,0.1,0,0.2,0
		c0,0,0.1,0,0.1,0c0.1,0,0.1,0,0.2,0c0,0,0.1,0,0.1,0c0.1,0,0.2,0,0.2,0l0.1,0c0.1,0,0.2,0,0.3,0l0.1,0c0,0,0,0,0,0c0,0,0.1,0,0.1,0
		l0.1,0l0.1,0c0.1,0,0.2-0.1,0.3-0.1c0.1,0,0.1,0,0.2-0.1c0.1,0,0.3-0.1,0.4-0.2c0.1,0,0.1-0.1,0.2-0.1l0,0c0,0,0.1,0,0.1-0.1l0,0
		c0.1-0.1,0.2-0.1,0.2-0.2c0,0,0.1-0.1,0.1-0.1c0.1-0.1,0.1-0.2,0.2-0.2l0,0c0-0.1,0.1-0.2,0.1-0.2l0,0c0,0,0.1-0.1,0.1-0.1
		c0,0,0-0.1,0.1-0.1l0,0c0,0,0-0.1,0-0.1l0,0l0,0c0,0,0-0.1,0-0.1c0-0.1,0-0.2,0.1-0.3c0-0.2,0-0.4,0.1-0.6c0-0.1,0-0.2,0-0.3
		c0,0,0-0.1,0-0.1l0,0c0-0.1-0.1-0.2-0.1-0.3c0-0.1-0.1-0.2-0.2-0.3c-0.1-0.1-0.1-0.1-0.2-0.2l0,0c0,0,0-0.1-0.1-0.1
		c0,0-0.1-0.1-0.1-0.1c-0.1-0.1-0.1-0.2-0.2-0.2c-0.1-0.1-0.2-0.2-0.2-0.2c0,0-0.1,0-0.1-0.1c-0.1,0-0.1-0.1-0.2-0.1
		c0,0-0.1-0.1-0.1-0.1c0,0-0.1-0.1-0.1-0.1c0,0-0.1-0.1-0.1-0.1c0,0-0.1,0-0.1-0.1l0,0c-0.1,0-0.1-0.1-0.2-0.1c0,0-0.1,0-0.1-0.1
		c-0.1,0-0.1-0.1-0.2-0.1c0,0-0.1,0-0.1-0.1c-0.1-0.1-0.2-0.1-0.3-0.2c0,0-0.1,0-0.1,0l0,0l0,0c0,0-0.1,0-0.1-0.1l0,0
		c-0.1-0.1-0.2-0.1-0.3-0.2c-0.1-0.1-0.2-0.1-0.3-0.2c-0.1,0-0.2-0.1-0.3-0.1l0,0c-0.1,0-0.2-0.1-0.3-0.1c-0.3-0.2-0.7-0.3-1-0.5
		l-0.1,0c-0.1,0-0.2-0.1-0.3-0.1c-0.1,0-0.2-0.1-0.3-0.1l-0.1,0c-0.2-0.1-0.3-0.1-0.5-0.2c-0.1,0-0.2-0.1-0.3-0.1
		c-0.1,0-0.2-0.1-0.3-0.1l-0.1-0.1c-0.1-0.1-0.3-0.1-0.4-0.2c-0.2-0.1-0.4-0.2-0.6-0.2c-0.1-0.1-0.2-0.1-0.3-0.1
		c-0.1,0-0.2-0.1-0.3-0.1l-0.1,0c-0.2-0.1-0.3-0.1-0.5-0.2c-0.1,0-0.2-0.1-0.2-0.1c-0.1,0-0.2-0.1-0.4-0.1c-0.1,0-0.2-0.1-0.3-0.1
		c-0.1,0-0.1,0-0.2-0.1l-0.1,0l-0.1,0l-0.1,0l-0.1,0c-0.1,0-0.2-0.1-0.3-0.1c-0.1,0-0.1,0-0.2-0.1c-0.1,0-0.1,0-0.2-0.1
		c-0.1,0-0.1,0-0.2-0.1c0,0-0.1,0-0.1,0c-0.1,0-0.3-0.1-0.4-0.1c-0.1,0-0.3-0.1-0.4-0.1c-0.1,0-0.2-0.1-0.3-0.1l-0.1,0
		c-0.1,0-0.2-0.1-0.4-0.1l0,0c-0.1,0-0.1,0-0.2,0l0,0c-0.1,0-0.1,0-0.2,0l0,0c-0.1,0-0.2,0-0.2,0l0,0c0,0,0,0-0.1,0c0,0,0,0-0.1,0
		c0,0,0,0,0,0c-0.1,0-0.1,0-0.2,0c0,0-0.1,0-0.1,0c-0.2,0-0.4-0.1-0.6-0.1C23.5,31.3,23.4,31.3,23.4,31.3L23.4,31.3L23.4,31.3z"/>
	<g>
		<circle class="st1" cx="18.9" cy="12.7" r="3.2"/>
	</g>
	<g>
		<circle class="st1" cx="11.7" cy="19.3" r="3.2"/>
	</g>
	<g>
		<circle class="st1" cx="9.3" cy="28.8" r="3.2"/>
	</g>
	<g>
		<circle class="st1" cx="34.1" cy="23.2" r="3.2"/>
	</g>
	<g>
		<circle class="st1" cx="39.2" cy="14.6" r="3.2"/>
	</g>
	<g>
		<circle class="st1" cx="24.4" cy="36.5" r="3.2"/>
	</g>
</g>
</svg>
