<?xml version="1.0" encoding="UTF-8"?><svg id="Layer_1_copy" xmlns="http://www.w3.org/2000/svg" viewBox="0 0 48 48"><defs><style>.cls-1{fill:#666;}.cls-2{fill:#333;}.cls-3{fill:#b2b2b2;}</style></defs><path class="cls-3" d="M19.68,6.11c.31,.78,.41,1.68,.25,2.51-.12,.59-.49,1.1-.93,1.51-1.26,1.3-3.1,1.57-4.6,2.45-.51,.36-1.05,.69-1.42,1.2-.71,.72-1.27,1.57-1.6,2.53-.42,1.1-.39,2.29-.35,3.45,0,2.57-.22,5.32,2.39,6.7,1.73,.92,3.48,1.58,4.92,2.96,.95,1,1.36,2.4,1.57,3.73,.19,1.49,.05,3,.02,4.49,0,.78-.04,1.55-.09,2.32-.08,.87,.06,1.8-.3,2.62-.54,1-1.73,1.61-2.86,1.61-.08,0-.15,0-.23,0-1.65-.13-2.92-1.25-4-2.41-.7-.66-1.41-1.32-2.17-1.92-.85-.73-1.64-1.47-2.5-2.17-1.19-.97-2.51-1.96-3.14-3.41-.74-1.73-.71-3.67-.83-5.52-.11-2.34-.22-4.68-.07-7.02,.28-4.15,.31-8.12,3.41-11.25,1.66-1.68,3.59-3.22,5.42-4.72,1.32-1.69,3.87-2.51,5.65-1.33,.66,.33,1.19,.88,1.46,1.67Z"/><path class="cls-3" d="M44.26,16.47c.16,1.39,0,2.89-.1,4.18-.17,2.45-.5,4.9-.39,7.36,.11,2.42,.93,5.7-.74,7.75-1.95,2.38-5.25,.88-6.57-1.26-.9-1.46-1.48-3.19-2.78-4.31-1.05-.91-2.45-1.32-3.52-2.2-.72-.6-1.27-1.41-1.55-2.3-.27-.84-.3-1.76,0-2.59,1.23-3.35,8.51-2.98,7.12-7.54-.41-1.34-1.63-2.28-2.88-2.92-.97-.49-2.01-.87-2.83-1.58-.97-.84-1.53-2.12-1.5-3.4,.04-1.71,1.21-3.4,2.94-3.77,2.03-.43,3.84,1.02,4.99,2.54,1.04,1.37,1.83,2.95,3.07,4.13,1.34,1.28,3.2,2.08,4.09,3.71,.36,.67,.56,1.42,.64,2.21Z"/><path class="cls-2" d="M26.28,8.08c.02-1.32-1.03-2.4-2.35-2.42-1.32-.02-2.4,1.03-2.42,2.35-.02,1.31,1.03,2.4,2.35,2.42,1.32,.02,2.4-1.03,2.42-2.35Z"/><path class="cls-2" d="M26.28,24.08c.02-1.32-1.03-2.4-2.35-2.42-1.32-.02-2.4,1.03-2.42,2.35-.02,1.31,1.03,2.4,2.35,2.42,1.32,.02,2.4-1.03,2.42-2.35Z"/><path class="cls-2" d="M33.86,16.04c.02-1.32-1.03-2.4-2.35-2.42-1.32-.02-2.4,1.03-2.42,2.35-.02,1.31,1.03,2.4,2.35,2.42,1.32,.02,2.4-1.03,2.42-2.35Z"/><path class="cls-2" d="M26.33,16.04c.02-1.32-1.03-2.4-2.35-2.42-1.32-.02-2.4,1.03-2.42,2.35-.02,1.31,1.03,2.4,2.35,2.42,1.32,.02,2.4-1.03,2.42-2.35Z"/><path class="cls-1" d="M18.81,39.39c.02-1.32-1.03-2.4-2.35-2.42-1.32-.02-2.4,1.03-2.42,2.35-.02,1.31,1.03,2.4,2.35,2.42,1.32,.02,2.4-1.03,2.42-2.35Z"/><path class="cls-1" d="M10.54,24.08c.02-1.32-1.03-2.4-2.35-2.42-1.32-.02-2.4,1.03-2.42,2.35-.02,1.31,1.03,2.4,2.35,2.42,1.32,.02,2.4-1.03,2.42-2.35Z"/><path class="cls-1" d="M18.81,8.08c.02-1.32-1.03-2.4-2.35-2.42-1.32-.02-2.4,1.03-2.42,2.35-.02,1.31,1.03,2.4,2.35,2.42,1.32,.02,2.4-1.03,2.42-2.35Z"/><path class="cls-1" d="M18.81,31.98c.02-1.32-1.03-2.4-2.35-2.42-1.32-.02-2.4,1.03-2.42,2.35-.02,1.31,1.03,2.4,2.35,2.42,1.32,.02,2.4-1.03,2.42-2.35Z"/><path class="cls-1" d="M10.54,16.03c.02-1.32-1.03-2.4-2.35-2.42-1.32-.02-2.4,1.04-2.42,2.35-.02,1.31,1.03,2.4,2.35,2.42,1.32,.02,2.4-1.03,2.42-2.35Z"/><path class="cls-1" d="M10.54,31.98c.02-1.32-1.03-2.4-2.35-2.42-1.32-.02-2.4,1.03-2.42,2.35-.02,1.31,1.03,2.4,2.35,2.42,1.32,.02,2.4-1.03,2.42-2.35Z"/><path class="cls-2" d="M26.33,39.39c.02-1.32-1.03-2.4-2.35-2.42-1.32-.02-2.4,1.03-2.42,2.35-.02,1.31,1.03,2.4,2.35,2.42,1.32,.02,2.4-1.03,2.42-2.35Z"/><path class="cls-2" d="M33.86,39.39c.02-1.32-1.03-2.4-2.35-2.42-1.32-.02-2.4,1.03-2.42,2.35-.02,1.31,1.03,2.4,2.35,2.42,1.32,.02,2.4-1.03,2.42-2.35Z"/><path class="cls-2" d="M18.81,16.03c.02-1.32-1.03-2.4-2.35-2.42-1.32-.02-2.4,1.03-2.42,2.35-.02,1.31,1.03,2.4,2.35,2.42,1.32,.02,2.4-1.03,2.42-2.35Z"/><path class="cls-2" d="M26.28,31.98c.02-1.32-1.03-2.4-2.35-2.42-1.32-.02-2.4,1.04-2.42,2.35-.02,1.31,1.03,2.4,2.35,2.42,1.32,.02,2.4-1.03,2.42-2.35Z"/><path class="cls-1" d="M42.28,24.34c.09-1.32-.89-2.46-2.21-2.55-1.31-.09-2.46,.89-2.55,2.21-.09,1.31,.89,2.45,2.21,2.55,1.31,.1,2.46-.89,2.55-2.2Z"/><path class="cls-1" d="M34.53,8.34c.1-1.31-.89-2.46-2.2-2.55-1.31-.09-2.46,.89-2.55,2.21-.09,1.31,.89,2.45,2.2,2.55,1.32,.09,2.46-.89,2.55-2.21Z"/><path class="cls-1" d="M42.28,32.23c.1-1.31-.89-2.46-2.21-2.55-1.31-.09-2.46,.89-2.55,2.21-.09,1.31,.89,2.45,2.21,2.55,1.31,.1,2.46-.89,2.55-2.2Z"/><path class="cls-1" d="M42.28,16.29c.09-1.31-.89-2.46-2.21-2.55-1.31-.09-2.46,.89-2.55,2.21-.09,1.31,.89,2.45,2.21,2.55,1.31,.1,2.46-.89,2.55-2.2Z"/><path class="cls-1" d="M34.53,23.96c.1-1.31-.89-2.46-2.21-2.55-1.31-.09-2.45,.89-2.55,2.21-.09,1.31,.89,2.45,2.2,2.55,1.32,.1,2.46-.89,2.55-2.2Z"/></svg>