<?xml version="1.0" encoding="utf-8"?>
<!-- Generator: Adobe Illustrator 22.0.1, SVG Export Plug-In . SVG Version: 6.00 Build 0)  -->
<svg version="1.1" id="Layer_1" xmlns="http://www.w3.org/2000/svg" xmlns:xlink="http://www.w3.org/1999/xlink" x="0px" y="0px"
	 viewBox="101.5 203.5 48 48" enable-background="new 101.5 203.5 48 48" xml:space="preserve">
<g>
	
		<rect x="128.523" y="201.568" transform="matrix(7.828298e-11 1 -1 7.828298e-11 344.739 81.4883)" fill="#333333" width="6.204" height="23.091"/>
	
		<rect x="123.009" y="217.021" transform="matrix(-1.161055e-10 1 -1 -1.161055e-10 349.1631 96.9413)" fill="#333333" width="6.204" height="12.062"/>
	
		<rect x="128.523" y="221.507" transform="matrix(7.798988e-11 1 -1 7.798988e-11 364.6775 101.4268)" fill="#333333" width="6.204" height="23.091"/>
	
		<rect x="123.009" y="236.96" transform="matrix(-1.161055e-10 1 -1 -1.161055e-10 369.1016 116.8799)" fill="#333333" width="6.204" height="12.062"/>
	<g>
		<path fill="#333333" d="M116.239,213.178c0.034-2.323-1.824-4.237-4.147-4.27c-2.32-0.03-4.231,1.826-4.262,4.15
			c-0.033,2.317,1.822,4.229,4.144,4.262C114.3,217.355,116.21,215.497,116.239,213.178z"/>
	</g>
	<g>
		<path fill="#333333" d="M116.239,233.116c0.034-2.323-1.824-4.237-4.147-4.27c-2.32-0.03-4.231,1.826-4.262,4.15
			c-0.033,2.317,1.822,4.229,4.144,4.262C114.3,237.294,116.21,235.435,116.239,233.116z"/>
	</g>
</g>
</svg>
