<?xml version="1.0" encoding="utf-8"?>
<!-- Generator: Adobe Illustrator 16.2.0, SVG Export Plug-In . SVG Version: 6.00 Build 0)  -->
<!DOCTYPE svg PUBLIC "-//W3C//DTD SVG 1.1//EN" "http://www.w3.org/Graphics/SVG/1.1/DTD/svg11.dtd">
<svg version="1.1" id="Layer_1" xmlns="http://www.w3.org/2000/svg" xmlns:xlink="http://www.w3.org/1999/xlink" x="0px" y="0px"
	 width="48px" height="48px" viewBox="0 0 48 48" enable-background="new 0 0 48 48" xml:space="preserve">
<g>
	<g>
		<g>
			<path fill="#333333" d="M15.869,32.257c-2.058,0-4.009-0.277-5.492-0.783c-0.786-0.267-1.364-0.57-1.786-0.891v2.938
				c0,0.77,1.03,1.457,2.648,1.912C12.498,35.788,14.111,36,15.869,36c4.021,0,7.279-1.112,7.279-2.479v-2.938
				c-0.423,0.32-1.002,0.624-1.787,0.891C19.879,31.979,17.928,32.257,15.869,32.257z"/>
		</g>
		<g>
			<path fill="#333333" d="M15.869,26.762c-2.058,0-4.009-0.278-5.492-0.783c-0.786-0.267-1.364-0.571-1.786-0.891v2.937
				c0,0.771,1.03,1.457,2.648,1.913c1.259,0.354,2.872,0.567,4.63,0.567c4.021,0,7.279-1.112,7.279-2.48v-2.937
				c-0.423,0.319-1.002,0.624-1.787,0.891C19.879,26.483,17.928,26.762,15.869,26.762z"/>
		</g>
		<g>
			<path fill="#333333" d="M23.148,22.597v-3.02c-0.423,0.32-1.002,0.624-1.787,0.893c-1.482,0.506-3.434,0.783-5.492,0.783
				c-2.058,0-4.009-0.277-5.492-0.783c-0.786-0.269-1.364-0.572-1.786-0.893v3.02c0.241,1.296,3.416,2.322,7.278,2.322
				C19.732,24.919,22.907,23.893,23.148,22.597z"/>
		</g>
		<g>
			<path fill="#333333" d="M8.591,17.05c0.178,1.314,3.373,2.36,7.278,2.36s7.102-1.046,7.279-2.36v-2.572
				c0-1.368-3.259-2.478-7.279-2.478s-7.278,1.109-7.278,2.478V17.05z"/>
		</g>
	</g>
	<g>
		<g>
			<path fill="#333333" d="M32.131,32.257c-2.059,0-4.01-0.277-5.493-0.783c-0.785-0.267-1.364-0.57-1.786-0.891v2.938
				c0,0.77,1.03,1.457,2.648,1.912C28.759,35.788,30.372,36,32.131,36c4.02,0,7.278-1.112,7.278-2.479v-2.938
				c-0.423,0.32-1.001,0.624-1.787,0.891C36.14,31.979,34.188,32.257,32.131,32.257z"/>
		</g>
		<g>
			<path fill="#333333" d="M39.409,28.093v-3.02c-0.423,0.32-1.001,0.623-1.787,0.892c-1.482,0.506-3.434,0.784-5.491,0.784
				c-2.059,0-4.01-0.278-5.493-0.784c-0.785-0.269-1.364-0.571-1.786-0.892v3.02c0.242,1.296,3.416,2.322,7.279,2.322
				C35.993,30.415,39.168,29.389,39.409,28.093z"/>
		</g>
		<g>
			<path fill="#333333" d="M24.852,22.546c0.178,1.313,3.373,2.36,7.279,2.36c3.904,0,7.101-1.047,7.278-2.36v-2.572
				c0-1.368-3.259-2.479-7.278-2.479c-4.021,0-7.279,1.11-7.279,2.479V22.546z"/>
		</g>
	</g>
</g>
</svg>
