<?xml version="1.0" encoding="utf-8"?>
<!-- Generator: Adobe Illustrator 23.0.4, SVG Export Plug-In . SVG Version: 6.00 Build 0)  -->
<svg version="1.1"
	 id="svg2" xmlns:cc="http://creativecommons.org/ns#" xmlns:dc="http://purl.org/dc/elements/1.1/" xmlns:inkscape="http://www.inkscape.org/namespaces/inkscape" xmlns:rdf="http://www.w3.org/1999/02/22-rdf-syntax-ns#" xmlns:sodipodi="http://sodipodi.sourceforge.net/DTD/sodipodi-0.dtd" xmlns:svg="http://www.w3.org/2000/svg"
	 xmlns="http://www.w3.org/2000/svg" xmlns:xlink="http://www.w3.org/1999/xlink" x="0px" y="0px" viewBox="0 0 396.6 439.7"
	 style="enable-background:new 0 0 396.6 439.7;" xml:space="preserve">
<style type="text/css">
	.st0{fill:#333333;}
	.st1{fill:#FFFFFF;}
</style>
<defs>
	
	
		<inkscape:perspective  id="perspective2985" inkscape:persp3d-origin="372.04724 : 350.78739 : 1" inkscape:vp_x="0 : 526.18109 : 1" inkscape:vp_y="0 : 1000 : 0" inkscape:vp_z="744.09448 : 526.18109 : 1" sodipodi:type="inkscape:persp3d">
		</inkscape:perspective>
</defs>
<sodipodi:namedview  bordercolor="#666666" borderopacity="1.0" id="base" inkscape:current-layer="layer1" inkscape:cx="216.95411" inkscape:cy="435.582" inkscape:document-units="px" inkscape:pageopacity="0.0" inkscape:pageshadow="2" inkscape:window-height="1123" inkscape:window-maximized="1" inkscape:window-width="1920" inkscape:window-x="1911" inkscape:window-y="-9" inkscape:zoom="0.98994949" pagecolor="#ffffff" showgrid="false">
	</sodipodi:namedview>
<g>
	<path class="st0" d="M361.6,219c-0.1-16.3,1.6-76.3-6.6-90.4c-8.2-14.1-61.3-42.1-75.5-50.1c-14.2-8.1-65.3-39.5-81.6-39.5
		c-16.3,0.1-67.1,32.1-81.2,40.3c-14.1,8.2-66.9,36.7-75,50.9c-8.1,14.2-5.8,74.1-5.7,90.4c0.1,16.3-1.6,76.3,6.6,90.4
		c8.2,14.1,61.3,42.1,75.5,50.1s65.3,39.5,81.6,39.5c16.3-0.1,67.1-32.1,81.2-40.3c14.1-8.2,66.9-36.7,75-50.9
		C364,295.3,361.6,235.3,361.6,219z"/>
</g>
<path class="st1" d="M189.6,151.1c0-0.7-0.1-1-0.1-1.1c-0.2-0.1-0.6-0.2-1.6-0.2h-11c-1.2,0-1.6,0.2-1.6,0.2c0,0-0.1,0.3-0.1,1.1
	v44.2h-3.9l-0.7-0.7c-4.8-4.6-12.5-7.1-21.8-7.1c-28.4,0-40,13.6-40,47v7.2c0,35.7,10.8,48.3,41.1,48.3c27.2,0,39.8-11.5,39.8-36.2
	V151.1z M175.2,252.9c0,18.7-7.1,26-25.4,26c-21.9,0-26.2-13.9-26.2-37.8v-5.7c0-22.7,4.3-36.8,26-36.8c17.7,0,25.6,8.9,25.6,28.7
	L175.2,252.9L175.2,252.9z"/>
<path class="st1" d="M208,214.1v8.6c0,13.6,0.7,30.1,1.8,42.1c1.7,19.7,8.3,23.2,26.1,23.2h51c1.3,0,1.9-0.1,2-0.2
	c0-0.1,0.1-0.5,0.1-1.5v-9.1c0-1-0.1-1.3-0.1-1.5c-0.2-0.1-0.7-0.2-2-0.2h-49.2c-7.4,0-11-3.1-11.8-10c-1.3-10.4-1.6-23.1-1.6-40.2
	v-2.5h53.9c1.4,0,1.8-0.2,1.8-0.2h0c0,0,0.1-0.3,0.1-1.5v-9.1c0-1-0.1-1.4-0.1-1.5c-0.2-0.1-0.7-0.2-1.8-0.2h-53.9v-2.5
	c0-12.6,0.4-26,1.1-35c0.5-7.1,4.6-10.5,12.5-10.5H287c1.4,0,1.8-0.2,1.8-0.2c0,0,0.1-0.3,0.1-1.7v-8.9c0-1.1-0.1-1.6-0.2-1.7
	c-0.2-0.1-0.6-0.2-1.8-0.2h-51c-18.9,0-25.2,5.1-26.8,21.9C208,183.7,208,202.8,208,214.1z"/>
</svg>
