<?xml version="1.0" encoding="utf-8"?>
<!-- Generator: Adobe Illustrator 16.1.0, SVG Export Plug-In . SVG Version: 6.00 Build 0)  -->
<!DOCTYPE svg PUBLIC "-//W3C//DTD SVG 1.1//EN" "http://www.w3.org/Graphics/SVG/1.1/DTD/svg11.dtd">
<svg version="1.1" id="Layer_1" xmlns="http://www.w3.org/2000/svg" xmlns:xlink="http://www.w3.org/1999/xlink" x="0px" y="0px"
	 width="48px" height="48px" viewBox="0 0 48 48" enable-background="new 0 0 48 48" xml:space="preserve">
<g>
	<path fill="#333333" d="M15,29.363v8.02h22.532C24.947,37.359,18.45,34.039,15,29.363z"/>
	<path fill="#B2B2B2" d="M38,37.383c-0.113,0.002-0.227,0.002-0.338,0.002c-0.044,0-0.085-0.002-0.13-0.002H15H6v2h36v-2h-1H38z"/>
	<path fill="#666666" d="M37.996,35.383c-0.108,0.002-0.214,0.002-0.321,0.002c-22.925,0-23.98-11.482-24.679-19.094
		c-0.624-6.797-1.766-7.678-2.824-7.674c-1.126,0.029-3.223,0.086-4.17,24.729l1.998,0.076c0.574-14.91,1.622-20.191,2.196-22.016
		c0.261,0.898,0.573,2.492,0.81,5.068c0.413,4.502,1.223,9.132,3.996,12.889c3.45,4.676,9.947,7.996,22.532,8.02H38h3h1v-2H37.996z"
		/>
</g>
</svg>
