<svg id="svg" version="1.1" width="400" height="343.768115942029" xmlns="http://www.w3.org/2000/svg" xmlns:xlink="http://www.w3.org/1999/xlink" style="display: block;"><g id="svgg"><path id="path0" d="M197.344 18.831 C 197.280 18.972,197.284 21.062,197.352 23.474 L 197.477 27.859 199.426 27.860 C 202.933 27.862,216.798 28.876,220.478 29.399 C 225.398 30.098,225.202 30.127,225.573 28.633 C 226.144 26.330,226.728 22.197,226.604 21.327 C 226.370 19.681,198.052 17.265,197.344 18.831 M183.319 19.155 C 174.177 19.852,157.674 23.346,158.019 24.511 C 158.088 24.744,158.332 25.709,158.562 26.655 C 159.224 29.381,160.292 33.018,160.431 33.018 C 160.501 33.018,162.158 32.647,164.114 32.193 C 170.334 30.750,175.256 29.875,181.522 29.098 L 187.618 28.341 187.525 24.403 C 187.382 18.342,187.762 18.816,183.319 19.155 M236.368 24.334 C 234.375 32.640,234.146 31.861,238.930 33.036 C 243.394 34.134,253.802 37.604,257.939 39.375 C 261.378 40.847,261.135 40.995,263.272 36.107 C 264.695 32.852,264.869 32.224,264.456 31.838 C 262.826 30.310,240.079 22.700,237.145 22.700 C 236.933 22.700,236.583 23.435,236.368 24.334 M144.201 28.040 C 136.797 30.744,122.530 37.264,121.276 38.518 C 120.932 38.862,125.165 46.766,125.696 46.772 C 125.878 46.774,127.967 45.785,130.339 44.574 C 135.223 42.080,142.729 38.826,147.497 37.135 C 149.265 36.508,150.786 35.803,150.876 35.568 C 151.017 35.200,149.676 30.766,148.519 27.773 C 148.072 26.615,148.110 26.613,144.201 28.040 M271.885 40.580 C 269.810 44.777,269.732 45.651,271.421 45.733 C 272.462 45.783,285.051 53.683,289.922 57.342 C 293.353 59.920,293.368 59.919,295.479 57.266 C 298.252 53.781,298.971 52.661,298.771 52.140 C 298.167 50.567,276.136 36.461,274.279 36.458 C 274.084 36.458,273.007 38.313,271.885 40.580 M108.499 46.341 C 102.951 50.106,96.349 55.335,91.334 59.937 L 88.945 62.129 89.675 63.137 C 90.076 63.691,91.492 65.216,92.821 66.526 C 95.586 69.252,95.566 69.251,98.260 66.713 C 101.894 63.287,109.910 56.974,114.768 53.711 C 117.615 51.799,117.606 52.114,114.939 47.933 C 112.057 43.412,112.613 43.549,108.499 46.341 M237.661 56.385 C 237.188 56.533,236.028 56.837,235.082 57.062 C 232.384 57.701,228.651 59.879,225.386 62.718 C 220.276 67.161,217.296 77.182,218.876 84.609 C 224.092 109.115,255.944 110.214,263.744 86.156 C 264.464 83.935,264.530 76.198,263.847 73.947 C 262.198 68.506,259.017 63.486,255.772 61.206 C 254.986 60.654,254.178 60.065,253.978 59.899 C 250.650 57.138,241.533 55.175,237.661 56.385 M245.400 56.919 C 263.605 60.153,270.341 83.338,256.942 96.647 C 242.585 110.909,218.818 100.250,218.979 79.622 C 219.092 65.147,231.535 54.455,245.400 56.919 M303.832 62.269 C 302.339 63.981,301.065 65.534,301.000 65.720 C 300.934 65.906,303.181 68.336,305.993 71.120 C 308.804 73.904,313.012 78.465,315.345 81.255 C 317.866 84.272,319.746 86.239,319.982 86.108 C 321.087 85.494,326.709 81.062,326.851 80.692 C 327.291 79.545,308.625 59.157,307.134 59.157 C 306.811 59.157,305.326 60.558,303.832 62.269 M145.948 59.765 C 145.730 59.903,147.688 60.017,150.301 60.017 C 152.913 60.017,154.978 59.901,154.891 59.759 C 154.685 59.426,146.472 59.431,145.948 59.765 M142.562 60.736 C 132.413 64.414,125.953 75.540,127.564 86.564 C 128.099 90.219,130.648 96.490,131.780 96.933 C 131.941 96.996,132.072 97.251,132.072 97.499 C 132.072 99.646,142.487 106.350,145.658 106.244 C 146.036 106.231,145.248 105.872,143.907 105.446 C 122.741 98.717,122.711 67.376,143.865 60.713 C 144.662 60.463,145.004 60.253,144.626 60.247 C 144.248 60.242,143.319 60.462,142.562 60.736 M157.524 60.998 C 163.223 63.022,167.154 66.431,170.357 72.130 C 171.583 74.311,171.824 73.992,170.673 71.711 C 167.932 66.279,160.143 60.156,156.026 60.196 C 155.620 60.200,156.294 60.561,157.524 60.998 M78.116 73.535 C 69.911 83.208,63.544 92.593,64.530 93.564 C 65.239 94.263,71.401 98.022,71.838 98.022 C 71.987 98.022,73.257 96.281,74.659 94.153 C 78.515 88.299,81.637 84.198,86.434 78.685 C 88.874 75.882,88.913 76.080,85.250 72.623 C 81.552 69.132,81.887 69.090,78.116 73.535 M171.788 75.408 C 175.932 88.613,168.806 102.209,155.875 105.770 C 154.985 106.015,154.595 106.229,155.010 106.246 C 161.450 106.509,170.366 97.758,172.809 88.775 C 173.899 84.769,173.135 74.635,171.743 74.635 C 171.634 74.635,171.654 74.983,171.788 75.408 M329.149 91.486 C 324.707 94.445,324.824 93.737,327.930 98.890 C 330.748 103.567,334.921 111.700,336.704 115.993 C 337.425 117.729,338.001 118.659,338.356 118.659 C 339.237 118.659,346.690 115.501,346.690 115.128 C 346.690 112.848,334.169 89.077,332.969 89.081 C 332.854 89.081,331.135 90.163,329.149 91.486 M58.568 102.580 C 58.232 103.019,56.427 106.740,54.606 110.748 C 52.260 115.913,48.151 127.576,48.151 129.072 C 48.151 129.873,50.799 130.938,55.634 132.080 C 57.017 132.407,56.856 132.674,58.846 126.757 C 61.246 119.617,63.978 113.000,66.521 108.169 C 67.375 106.546,67.293 106.453,63.084 104.242 C 58.542 101.856,58.995 102.023,58.568 102.580 M281.341 104.915 C 275.486 106.553,273.215 107.820,269.647 111.437 C 265.820 115.319,262.724 121.466,263.196 124.246 C 263.281 124.743,263.431 124.407,263.614 123.313 C 265.592 111.521,278.222 102.961,290.003 105.428 C 311.833 109.998,314.791 141.025,294.239 149.865 C 281.571 155.314,266.797 147.394,263.615 133.448 C 263.365 132.354,263.168 131.929,263.148 132.440 C 262.949 137.421,268.958 146.131,274.697 149.180 C 296.226 160.616,317.985 135.653,304.632 114.838 C 303.508 113.086,302.367 111.841,299.914 109.691 C 298.722 108.646,295.554 106.621,295.111 106.621 C 294.910 106.621,294.477 106.471,294.148 106.288 C 291.689 104.916,284.205 104.114,281.341 104.915 M147.377 106.621 C 148.327 107.029,152.765 107.029,153.396 106.621 C 153.747 106.395,152.752 106.293,150.301 106.306 C 147.967 106.319,146.933 106.430,147.377 106.621 M91.660 108.981 C 81.904 111.972,76.399 117.905,74.160 127.841 C 71.535 139.495,80.774 153.947,91.688 155.260 L 93.379 155.464 91.316 154.838 C 80.695 151.615,74.486 143.288,74.469 132.244 C 74.438 111.596,97.956 101.122,112.324 115.384 C 125.118 128.084,119.790 149.675,102.604 154.769 C 100.329 155.443,100.310 155.458,101.972 155.257 C 113.402 153.876,122.581 138.442,119.220 126.258 C 115.773 113.764,102.729 105.587,91.660 108.981 M185.039 116.570 C 178.124 118.430,171.207 124.913,169.174 131.439 C 162.356 153.323,184.303 171.474,203.267 159.635 C 207.588 156.938,212.994 149.512,212.864 146.454 C 212.840 145.899,212.691 146.099,212.372 147.113 C 207.058 163.989,184.744 168.335,173.672 154.651 C 159.966 137.712,174.579 112.383,195.529 116.767 C 203.028 118.336,210.089 124.803,212.418 132.234 C 212.693 133.113,212.860 133.345,212.875 132.869 C 212.887 132.456,212.482 131.140,211.973 129.945 C 207.522 119.485,195.816 113.672,185.039 116.570 M262.716 126.827 C 262.650 127.726,262.690 129.157,262.803 130.009 C 262.957 131.160,263.023 130.743,263.061 128.375 C 263.116 124.998,262.915 124.097,262.716 126.827 M345.228 126.484 C 341.083 127.859,341.127 127.799,342.062 130.868 C 344.197 137.878,346.690 150.220,346.690 153.781 C 346.690 155.129,346.895 155.174,351.227 154.771 C 356.753 154.257,356.437 154.452,356.159 151.728 C 355.415 144.437,353.617 135.707,351.277 128.031 C 350.250 124.661,350.515 124.729,345.228 126.484 M213.152 135.354 C 213.296 136.292,213.414 138.220,213.414 139.639 C 213.414 141.058,213.296 142.986,213.152 143.924 C 212.942 145.296,212.976 145.545,213.324 145.197 C 213.634 144.887,213.758 143.301,213.758 139.639 C 213.758 135.977,213.634 134.391,213.324 134.081 C 212.976 133.733,212.942 133.982,213.152 135.354 M45.473 140.072 C 44.936 140.728,43.859 147.204,42.969 155.116 C 42.469 159.569,42.183 174.337,42.540 177.300 L 42.830 179.708 44.717 179.655 C 45.755 179.625,47.875 179.496,49.429 179.367 L 52.254 179.132 52.048 173.057 C 51.766 164.698,52.520 154.210,54.020 145.658 C 54.779 141.331,55.020 141.708,50.903 140.794 C 48.917 140.353,46.961 139.914,46.557 139.819 C 46.153 139.723,45.665 139.837,45.473 140.072 M95.367 155.713 C 96.271 155.784,97.664 155.783,98.463 155.711 C 99.261 155.639,98.521 155.581,96.819 155.582 C 95.116 155.583,94.463 155.642,95.367 155.713 M138.091 161.642 C 119.399 164.717,112.062 188.605,125.672 202.072 C 134.863 211.167,148.614 211.168,157.707 202.075 C 160.262 199.520,163.052 195.208,163.016 193.868 C 163.010 193.646,162.357 194.703,161.565 196.217 C 154.464 209.778,136.868 212.505,126.024 201.724 C 114.760 190.525,117.737 171.153,131.773 164.314 C 150.065 155.400,169.113 172.548,163.164 192.573 C 162.999 193.129,163.040 193.326,163.290 193.171 C 163.943 192.767,164.746 188.272,164.746 185.020 C 164.746 176.964,160.592 169.301,153.883 164.980 C 151.590 163.503,150.445 162.974,147.549 162.055 C 145.930 161.541,140.222 161.292,138.091 161.642 M352.134 164.402 C 349.926 164.497,348.037 164.657,347.937 164.759 C 347.836 164.860,347.671 168.033,347.570 171.809 C 347.391 178.497,347.056 182.661,346.185 188.994 C 345.951 190.696,345.853 192.191,345.967 192.314 C 346.212 192.581,354.915 194.125,355.104 193.935 C 355.796 193.244,357.340 176.405,357.347 169.488 C 357.353 163.832,357.693 164.164,352.134 164.402 M301.965 164.525 C 301.864 164.629,300.935 164.865,299.902 165.049 C 293.898 166.120,289.333 168.890,285.623 173.711 C 283.953 175.882,281.692 180.521,281.695 181.771 C 281.696 182.150,282.200 181.221,282.816 179.708 C 287.114 169.139,297.262 163.526,308.452 165.528 C 309.313 165.682,309.859 165.665,309.749 165.487 C 309.479 165.050,302.317 164.165,301.965 164.525 M311.952 166.576 C 320.390 170.064,325.672 177.750,326.413 187.618 L 326.697 191.402 326.567 187.253 C 326.331 179.698,323.863 174.812,317.455 169.216 C 316.072 168.009,311.679 165.774,310.712 165.786 C 310.353 165.791,310.911 166.146,311.952 166.576 M226.655 176.644 C 210.479 179.604,202.123 196.453,209.446 211.347 C 215.366 223.388,230.540 227.652,241.912 220.469 C 251.643 214.324,255.561 200.872,250.703 190.283 C 249.498 187.656,249.251 188.070,250.395 190.800 C 255.983 204.136,249.343 218.392,235.426 222.937 C 233.232 223.654,225.880 223.533,223.560 222.743 C 207.689 217.339,202.051 198.436,212.419 185.392 C 221.590 173.855,240.117 174.556,248.183 186.745 C 248.694 187.517,249.189 188.071,249.284 187.976 C 249.825 187.435,245.303 182.401,242.648 180.588 C 238.105 177.484,231.272 175.799,226.655 176.644 M281.254 183.322 C 281.142 183.793,280.967 185.417,280.865 186.930 L 280.679 189.682 281.180 186.414 C 281.653 183.329,281.698 181.452,281.254 183.322 M51.905 188.622 C 51.813 188.715,50.282 188.967,48.503 189.183 C 44.320 189.692,43.619 189.959,43.819 190.966 C 43.904 191.395,44.139 192.674,44.341 193.809 C 45.311 199.252,46.277 203.459,48.133 210.318 C 48.691 212.376,50.565 217.896,50.864 218.359 C 51.185 218.857,51.340 218.816,57.266 216.682 C 60.104 215.659,60.070 215.759,58.828 212.150 C 57.607 208.601,55.008 198.592,54.333 194.841 C 53.252 188.833,52.814 187.713,51.905 188.622 M281.003 191.430 C 281.006 192.360,281.167 193.353,281.362 193.637 C 281.612 194.002,281.648 193.547,281.485 192.089 C 281.197 189.503,280.996 189.228,281.003 191.430 M325.630 194.068 C 320.303 216.376,289.100 217.478,282.210 195.602 C 281.959 194.805,281.738 194.421,281.719 194.748 C 281.701 195.075,281.932 196.004,282.233 196.812 C 289.403 216.031,315.139 217.337,324.428 198.953 C 325.541 196.751,326.476 193.556,326.334 192.439 C 326.263 191.876,326.018 192.444,325.630 194.068 M342.936 204.901 C 341.477 210.274,338.804 217.989,336.679 222.958 L 334.600 227.817 335.400 228.432 C 335.840 228.771,336.311 229.051,336.447 229.055 C 336.582 229.059,337.960 229.682,339.509 230.439 C 341.057 231.195,342.530 231.814,342.781 231.814 C 343.902 231.814,348.880 219.281,351.845 208.996 C 353.350 203.774,353.458 204.001,348.925 202.872 C 343.482 201.515,343.893 201.376,342.936 204.901 M108.512 222.721 C 108.134 222.808,106.981 223.050,105.950 223.259 C 104.919 223.469,103.836 223.758,103.543 223.903 C 103.249 224.047,101.787 224.750,100.292 225.464 C 96.448 227.300,91.773 232.046,90.420 235.486 C 87.184 243.713,86.969 247.890,89.411 255.030 C 91.151 260.118,97.127 266.614,101.609 268.290 C 102.190 268.507,102.975 268.810,103.353 268.962 C 105.281 269.740,107.820 270.132,110.920 270.132 C 114.020 270.132,116.559 269.740,118.487 268.962 C 118.865 268.810,119.705 268.485,120.352 268.240 C 122.297 267.505,126.778 263.959,128.447 261.835 C 139.062 248.326,134.274 230.693,118.143 223.883 C 116.071 223.008,110.297 222.312,108.512 222.721 M117.627 224.196 C 130.111 228.223,136.727 242.674,131.816 255.190 C 124.049 274.987,96.448 274.252,89.534 254.064 C 83.485 236.402,100.240 218.587,117.627 224.196 M58.899 226.390 C 56.484 227.479,55.030 228.326,55.030 228.646 C 55.030 231.039,68.214 253.826,69.599 253.826 C 70.174 253.826,77.042 249.057,77.042 248.658 C 77.042 248.486,76.136 246.986,75.028 245.325 C 72.057 240.867,67.965 233.703,65.622 228.857 C 64.488 226.511,63.382 224.604,63.164 224.619 C 62.947 224.634,61.028 225.432,58.899 226.390 M266.898 232.518 C 244.993 235.690,239.060 264.783,257.897 276.655 C 260.055 278.015,263.597 279.255,265.864 279.442 C 267.728 279.597,267.721 279.592,265.348 279.101 C 239.650 273.785,242.131 234.462,268.258 232.964 C 296.370 231.353,301.172 272.832,273.603 279.127 L 271.539 279.598 273.259 279.456 C 280.434 278.865,287.715 272.970,290.895 265.176 C 296.794 250.721,287.681 234.840,272.161 232.527 C 269.460 232.124,269.613 232.125,266.898 232.518 M182.115 236.461 C 179.168 236.916,178.691 237.078,174.721 238.968 C 169.887 241.268,164.614 247.592,163.328 252.630 C 161.369 260.309,162.651 269.758,166.153 273.437 C 166.420 273.717,167.098 274.566,167.659 275.322 C 172.499 281.840,181.756 285.065,190.242 283.188 C 192.666 282.652,196.666 280.995,197.528 280.170 C 197.753 279.955,198.710 279.216,199.656 278.528 C 200.602 277.840,201.840 276.638,202.408 275.858 C 202.975 275.078,203.726 274.097,204.076 273.677 C 205.948 271.433,207.190 268.089,207.935 263.285 C 210.298 248.035,196.953 234.172,182.115 236.461 M191.635 237.686 C 211.189 243.903,213.558 271.269,195.366 280.793 C 184.844 286.301,171.482 282.212,165.688 271.711 C 155.669 253.553,172.426 231.578,191.635 237.686 M328.466 239.123 C 324.947 245.056,319.333 252.999,315.668 257.228 C 314.948 258.059,314.359 258.926,314.359 259.155 C 314.359 259.627,320.671 265.176,321.208 265.176 C 322.712 265.176,338.091 243.428,338.091 241.300 C 338.091 240.850,331.042 236.629,330.291 236.629 C 330.100 236.629,329.279 237.752,328.466 239.123 M79.323 259.200 C 77.499 260.663,76.010 262.116,76.010 262.435 C 76.010 264.026,94.856 283.061,96.431 283.061 C 96.927 283.061,102.494 276.740,102.494 276.177 C 102.494 276.029,100.735 274.348,98.586 272.441 C 94.481 268.799,90.288 264.540,86.005 259.664 C 82.807 256.023,83.250 256.053,79.323 259.200 M304.213 269.518 C 300.091 273.423,293.888 278.610,289.835 281.540 C 285.882 284.397,285.956 283.862,288.920 288.141 C 291.944 292.506,291.449 292.342,294.631 290.038 C 300.529 285.766,304.514 282.422,310.999 276.304 C 314.749 272.766,314.741 273.309,311.100 269.652 C 307.390 265.927,307.992 265.939,304.213 269.518 M269.046 279.859 C 269.377 279.945,269.918 279.945,270.249 279.859 C 270.580 279.772,270.310 279.701,269.647 279.701 C 268.985 279.701,268.715 279.772,269.046 279.859 M107.762 285.150 C 104.738 289.346,104.688 289.441,105.201 290.059 C 106.942 292.157,128.129 304.729,129.923 304.729 C 130.552 304.729,134.131 296.712,133.723 296.219 C 133.512 295.966,131.501 294.821,129.253 293.675 C 124.578 291.291,117.304 286.943,113.447 284.227 C 110.092 281.864,110.136 281.857,107.762 285.150 M275.322 291.020 C 271.712 293.136,263.514 297.122,258.469 299.212 C 252.683 301.610,252.953 301.305,254.028 304.223 C 254.514 305.542,255.161 307.372,255.465 308.290 C 255.768 309.208,256.220 310.037,256.469 310.132 C 257.576 310.557,274.040 303.092,279.885 299.514 C 281.071 298.788,282.177 298.194,282.342 298.194 C 283.216 298.194,282.780 296.890,280.749 293.430 C 278.169 289.035,278.475 289.171,275.322 291.020 M141.703 302.890 C 140.325 306.198,139.639 308.122,139.639 308.673 C 139.639 309.870,161.802 316.691,166.272 316.871 L 167.969 316.939 168.746 313.328 C 170.009 307.456,170.655 308.207,162.683 306.277 C 159.751 305.567,154.411 303.992,150.817 302.776 C 147.223 301.560,143.954 300.482,143.553 300.380 C 142.917 300.219,142.682 300.537,141.703 302.890 M239.553 305.641 C 235.700 306.698,226.079 308.673,222.184 309.205 C 216.582 309.971,216.850 309.840,216.876 311.795 C 216.922 315.129,217.470 319.235,217.892 319.397 C 218.989 319.818,234.619 316.998,241.445 315.148 C 243.242 314.661,245.073 314.187,245.514 314.094 C 246.542 313.877,246.753 313.293,246.316 311.880 C 246.123 311.257,245.553 309.394,245.050 307.739 C 243.986 304.240,244.267 304.347,239.553 305.641 M179.057 309.928 C 178.975 310.190,178.734 311.874,178.520 313.672 C 178.307 315.469,178.068 317.250,177.989 317.630 C 177.909 318.010,177.961 318.509,178.103 318.739 C 178.688 319.686,200.527 321.016,205.427 320.403 L 207.414 320.154 207.318 315.623 L 207.223 311.092 198.796 310.870 C 190.999 310.664,184.827 310.257,180.832 309.686 C 179.594 309.508,179.170 309.566,179.057 309.928 " stroke="none" fill="#666666" fill-rule="evenodd"></path><path id="path1" d="M237.317 59.852 C 221.931 63.044,216.565 83.948,228.305 94.965 C 240.567 106.471,260.124 98.147,260.965 81.063 C 261.633 67.478,250.161 57.188,237.317 59.852 M225.774 63.027 L 224.764 64.144 225.881 63.134 C 226.496 62.579,226.999 62.076,226.999 62.016 C 226.999 61.751,226.715 61.985,225.774 63.027 M146.469 63.116 C 130.810 66.236,125.342 86.931,137.218 98.134 C 148.070 108.371,165.575 103.154,169.379 88.549 C 173.215 73.821,160.971 60.228,146.469 63.116 M280.696 108.519 C 269.360 111.694,263.233 124.116,267.296 135.684 C 269.405 141.688,275.162 146.818,281.374 148.229 C 298.248 152.060,311.443 132.943,302.480 117.650 C 298.160 110.279,288.648 106.291,280.696 108.519 M93.551 111.995 C 74.394 115.704,71.173 142.345,88.860 150.797 C 103.301 157.698,119.486 144.007,116.078 127.773 C 113.921 117.501,103.350 110.097,93.551 111.995 M187.909 119.361 C 173.296 121.950,166.471 139.112,175.064 151.660 C 184.458 165.378,205.720 161.269,209.944 144.920 C 213.559 130.928,201.510 116.952,187.909 119.361 M301.096 145.228 L 300.086 146.346 301.204 145.335 C 301.819 144.780,302.322 144.277,302.322 144.218 C 302.322 143.952,302.038 144.186,301.096 145.228 M136.803 165.278 C 122.118 169.292,117.098 188.401,127.812 199.500 C 139.174 211.268,158.235 204.879,161.120 188.335 C 163.580 174.231,150.258 161.600,136.803 165.278 M300.946 168.171 C 280.733 171.052,278.103 200.623,297.436 207.640 C 316.453 214.543,331.579 190.521,318.329 174.458 C 314.653 170.003,307.146 167.288,300.946 168.171 M225.124 180.408 C 208.229 185.043,204.647 208.192,219.365 217.621 C 236.288 228.463,256.212 209.357,247.205 190.923 C 243.219 182.765,233.465 178.120,225.124 180.408 M207.131 200.172 C 207.131 200.834,207.201 201.105,207.288 200.774 C 207.374 200.443,207.374 199.901,207.288 199.570 C 207.201 199.239,207.131 199.510,207.131 200.172 M107.997 226.182 C 91.433 229.392,85.424 250.094,97.734 261.537 C 114.226 276.867,138.570 256.806,128.065 236.542 C 124.410 229.491,115.269 224.773,107.997 226.182 M266.637 235.961 C 250.576 238.796,244.300 259.070,255.886 270.689 C 266.912 281.746,285.124 276.292,288.765 260.842 C 292.007 247.092,280.008 233.601,266.637 235.961 M181.083 239.953 C 158.343 245.980,161.854 280.310,185.211 280.310 C 207.060 280.310,212.489 249.213,192.089 240.911 C 189.708 239.942,183.247 239.379,181.083 239.953 " stroke="none" fill="#666666" fill-rule="evenodd"></path></g></svg>