<?xml version="1.0" encoding="utf-8"?>
<!-- Generator: Adobe Illustrator 16.1.0, SVG Export Plug-In . SVG Version: 6.00 Build 0)  -->
<!DOCTYPE svg PUBLIC "-//W3C//DTD SVG 1.1//EN" "http://www.w3.org/Graphics/SVG/1.1/DTD/svg11.dtd">
<svg version="1.1" id="Layer_1" xmlns="http://www.w3.org/2000/svg" xmlns:xlink="http://www.w3.org/1999/xlink" x="0px" y="0px"
	 width="48px" height="48px" viewBox="0 0 48 48" enable-background="new 0 0 48 48" xml:space="preserve">
<g>
	<path fill="#333333" d="M24.24,9c-8.166,0.777-20.545,5.147-5.75,11.423c7.415,3.146-17.641-6.517,5.729-7.978L24.24,9z"/>
	<path fill="#333333" d="M23.716,39c8.166-0.777,20.546-5.146,5.75-11.423c-7.415-3.146,17.642,6.517-5.73,7.979L23.716,39z"/>
	<path fill="#333333" d="M23.78,22.069c23.371-1.462-1.686-11.124,5.73-7.978c14.793,6.276,2.416,10.646-5.75,11.423h0.588
		c-23.271,1.548,1.686,11.124-5.73,7.977c-14.793-6.275-2.416-10.646,5.752-11.422"/>
</g>
</svg>
