<?xml version="1.0" encoding="UTF-8"?><svg id="Layer_1" xmlns="http://www.w3.org/2000/svg" viewBox="0 0 48 48"><defs><style>.cls-1{fill:#666;}</style></defs><rect class="cls-1" x="12.33" y="3.13" width="6.59" height="18.9" transform="translate(28.21 -3.05) rotate(90)"/><rect class="cls-1" x="33.06" y="7.1" width="6.59" height="10.96" transform="translate(48.93 -23.77) rotate(90)"/><rect class="cls-1" x="27.11" y="8.16" width="1.54" height="8.84" transform="translate(40.46 -15.3) rotate(90)"/><g><rect class="cls-1" x="29.09" y="14.57" width="6.59" height="18.9" transform="translate(56.4 -8.36) rotate(90)"/><rect class="cls-1" x="8.36" y="18.54" width="6.59" height="10.96" transform="translate(35.68 12.37) rotate(90)"/></g><rect class="cls-1" x="19.4" y="19.58" width="1.54" height="8.84" transform="translate(44.17 3.83) rotate(90)"/><rect class="cls-1" x="12.33" y="26.01" width="6.59" height="18.9" transform="translate(51.09 19.83) rotate(90)"/><rect class="cls-1" x="33.06" y="29.98" width="6.59" height="10.96" transform="translate(71.81 -.89) rotate(90)"/><rect class="cls-1" x="27.06" y="31.04" width="1.54" height="8.84" transform="translate(63.3 7.63) rotate(90)"/></svg>