<?xml version="1.0" encoding="UTF-8"?><svg id="Layer_1" xmlns="http://www.w3.org/2000/svg" viewBox="0 0 48 48"><defs><style>.cls-1{fill:#333;}</style></defs><rect class="cls-1" x="13.62" y="32.93" width="5.86" height="16.81" transform="translate(57.89 24.79) rotate(90)"/><rect class="cls-1" x="32.05" y="36.47" width="5.86" height="9.74" transform="translate(76.32 6.36) rotate(90)"/><rect class="cls-1" x="26.72" y="37.41" width="1.37" height="7.86" transform="translate(68.75 13.93) rotate(90)"/><g><path class="cls-1" d="M18.28,18.65c.04-1.1,.47-2.78,.94-3.61,1.02-.47,2.79-.78,4.48-.78,1.03,0,2.44,.15,3.1,.43v15.32c.82,.12,2.12,.39,2.79,.71,.12,.43,.19,1.38,.19,2.2,0,.32,0,.59-.04,.87h-11.54c.07-.94,.35-2.24,.62-2.87,.55-.43,1.5-.82,2.28-1.1v-11.16h-2.83Z"/><path class="cls-1" d="M27.47,7.68c0,2.71-1.65,4.23-3.99,4.23-2.66,0-4.09-1.47-4.09-4.23,0-2.39,1.7-3.95,4.09-3.95,2.34,0,3.99,1.43,3.99,3.95Z"/></g><rect class="cls-1" x="39.17" y="37.41" width="1.37" height="7.86" transform="translate(81.19 1.49) rotate(90)"/><rect class="cls-1" x="7.46" y="37.41" width="1.37" height="7.86" transform="translate(49.49 33.19) rotate(90)"/></svg>