<?xml version="1.0" encoding="utf-8"?>
<!-- Generator: Adobe Illustrator 16.1.0, SVG Export Plug-In . SVG Version: 6.00 Build 0)  -->
<!DOCTYPE svg PUBLIC "-//W3C//DTD SVG 1.1//EN" "http://www.w3.org/Graphics/SVG/1.1/DTD/svg11.dtd">
<svg version="1.1" id="Layer_1" xmlns="http://www.w3.org/2000/svg" xmlns:xlink="http://www.w3.org/1999/xlink" x="0px" y="0px"
	 width="48px" height="48px" viewBox="0 0 48 48" enable-background="new 0 0 48 48" xml:space="preserve">
<g>
	<path fill="#333333" d="M35.074,17.075c-3.82,0-6.93,3.103-6.93,6.921c0,1.066,0.249,2.108,0.711,3.054
		c-0.896,1.066-2.212,1.69-3.624,1.69c-1.987,0-3.692-1.233-4.396-2.973l4.662-1.161c0.585-0.149,0.941-0.741,0.794-1.325
		c-0.146-0.588-0.741-0.945-1.327-0.801l-4.45,1.116c0.203-2.423,2.238-4.337,4.718-4.337c0.433,0,0.865,0.058,1.276,0.175
		c0.581,0.163,1.182-0.182,1.346-0.759c0.163-0.581-0.177-1.187-0.756-1.349c-0.607-0.163-1.235-0.252-1.866-0.252
		c-2.929,0-5.433,1.827-6.444,4.403l-5.488,1.366c-0.586,0.149-0.941,0.74-0.795,1.328c0.124,0.497,0.569,0.83,1.058,0.83
		c0.089,0,0.178-0.011,0.269-0.036l3.834-0.96c-0.004,2.607-2.127,4.733-4.738,4.733c-2.614,0-4.738-2.129-4.738-4.744
		c0-2.61,2.124-4.736,4.738-4.736c0.189,0,0.38,0.012,0.566,0.035c0.598,0.068,1.145-0.36,1.213-0.959
		c0.071-0.603-0.358-1.147-0.959-1.215c-0.271-0.035-0.547-0.046-0.82-0.046C9.105,17.075,6,20.178,6,23.996
		c0,3.822,3.105,6.929,6.926,6.929c2.679,0,4.999-1.526,6.152-3.755c1.154,2.229,3.475,3.755,6.153,3.755
		c2.351,0,4.521-1.183,5.807-3.152c0.182-0.28,0.216-0.603,0.128-0.903c-0.018-0.146-0.068-0.283-0.148-0.414
		c-0.447-0.74-0.683-1.584-0.683-2.459c0-2.61,2.124-4.736,4.739-4.736c2.609,0,4.739,2.126,4.739,4.736
		c0,2.615-2.13,4.744-4.739,4.744c-0.649,0-1.275-0.128-1.86-0.38c-0.559-0.236-1.201,0.022-1.438,0.571
		c-0.239,0.556,0.019,1.2,0.578,1.438c0.86,0.371,1.775,0.556,2.721,0.556c3.818,0,6.926-3.106,6.926-6.929
		C42,20.178,38.893,17.075,35.074,17.075z"/>
</g>
</svg>
