<?xml version="1.0" encoding="utf-8"?>
<!-- Generator: Adobe Illustrator 22.0.1, SVG Export Plug-In . SVG Version: 6.00 Build 0)  -->
<svg version="1.1" id="Layer_1" xmlns="http://www.w3.org/2000/svg" xmlns:xlink="http://www.w3.org/1999/xlink" x="0px" y="0px"
	 viewBox="33.5 -68.5 48 48" enable-background="new 33.5 -68.5 48 48" xml:space="preserve">
<g>
	
		<rect x="45.178" y="-69.843" transform="matrix(7.065974e-11 1 -1 7.065974e-11 -11.1589 -107.7182)" fill="#333333" width="6.204" height="20.809"/>
	
		<rect x="67.992" y="-65.469" transform="matrix(7.065974e-11 1 -1 7.065974e-11 11.6556 -130.5327)" fill="#333333" width="6.204" height="12.062"/>
	
		<rect x="60.331" y="-64.303" transform="matrix(7.069971e-11 1 -1 7.069971e-11 1.7411 -120.6183)" fill="#333333" width="1.698" height="9.728"/>
	<g>
		
			<rect x="63.618" y="-59.905" transform="matrix(-1.158124e-10 1 -1 -1.158124e-10 17.2204 -116.2204)" fill="#333333" width="6.204" height="20.809"/>
		
			<rect x="40.804" y="-55.531" transform="matrix(-1.158124e-10 1 -1 -1.158124e-10 -5.5941 -93.4059)" fill="#333333" width="6.204" height="12.062"/>
		
			<rect x="52.971" y="-54.364" transform="matrix(-1.156907e-10 1 -1 -1.156907e-10 4.3203 -103.3203)" fill="#333333" width="1.698" height="9.728"/>
	</g>
	
		<rect x="45.178" y="-49.905" transform="matrix(7.065974e-11 1 -1 7.065974e-11 8.7796 -87.7796)" fill="#333333" width="6.204" height="20.809"/>
	
		<rect x="67.992" y="-45.531" transform="matrix(7.065974e-11 1 -1 7.065974e-11 31.5941 -110.5941)" fill="#333333" width="6.204" height="12.062"/>
	
		<rect x="60.331" y="-44.364" transform="matrix(7.069971e-11 1 -1 7.069971e-11 21.6797 -100.6797)" fill="#333333" width="1.698" height="9.728"/>
	<g>
		
			<rect x="63.618" y="-39.966" transform="matrix(-1.158124e-10 1 -1 -1.158124e-10 37.1589 -96.2818)" fill="#333333" width="6.204" height="20.809"/>
		
			<rect x="40.804" y="-35.592" transform="matrix(-1.158124e-10 1 -1 -1.158124e-10 14.3444 -73.4673)" fill="#333333" width="6.204" height="12.062"/>
		
			<rect x="52.971" y="-34.425" transform="matrix(-1.156907e-10 1 -1 -1.156907e-10 24.2589 -83.3817)" fill="#333333" width="1.698" height="9.728"/>
	</g>
</g>
</svg>
