<?xml version="1.0" encoding="utf-8"?>
<!-- Generator: Adobe Illustrator 22.0.1, SVG Export Plug-In . SVG Version: 6.00 Build 0)  -->
<svg version="1.1" id="Layer_1" xmlns="http://www.w3.org/2000/svg" xmlns:xlink="http://www.w3.org/1999/xlink" x="0px" y="0px"
	 viewBox="101.5 -68.5 48 48" enable-background="new 101.5 -68.5 48 48" xml:space="preserve">
<g>
	<g>
		
			<rect x="115.546" y="-43.173" transform="matrix(7.041016e-11 1 -1 7.041016e-11 83.2842 -152.8187)" fill="#333333" width="5.012" height="16.81"/>
		
			<rect x="133.976" y="-39.639" transform="matrix(7.041016e-11 1 -1 7.041016e-11 101.7146 -171.2491)" fill="#333333" width="5.012" height="9.744"/>
		
			<rect x="127.787" y="-38.697" transform="matrix(7.160476e-11 1 -1 7.160476e-11 93.7053 -163.2399)" fill="#333333" width="1.372" height="7.859"/>
		<g>
			
				<rect x="130.443" y="-35.144" transform="matrix(-1.154145e-10 1 -1 -1.154145e-10 106.21 -159.6871)" fill="#333333" width="5.012" height="16.81"/>
			
				<rect x="112.012" y="-31.611" transform="matrix(-1.161402e-10 1 -1 -1.161402e-10 87.7796 -141.2567)" fill="#333333" width="5.012" height="9.744"/>
			
				<rect x="121.842" y="-30.668" transform="matrix(-1.166908e-10 1 -1 -1.166908e-10 95.7889 -149.2659)" fill="#333333" width="1.372" height="7.859"/>
		</g>
	</g>
	<g>
		<path fill="#333333" d="M120.922-52.821c0.034-0.879,0.378-2.23,0.752-2.892c0.82-0.376,2.236-0.628,3.59-0.628
			c0.821,0,1.95,0.123,2.484,0.345v12.264c0.66,0.092,1.698,0.313,2.232,0.565c0.097,0.345,0.155,1.102,0.155,1.759
			c0,0.255,0,0.473-0.029,0.693h-9.242c0.058-0.755,0.281-1.792,0.5-2.295c0.442-0.348,1.199-0.66,1.825-0.88v-8.932H120.922z"/>
		<path fill="#333333" d="M128.277-61.603c0,2.174-1.324,3.387-3.198,3.387c-2.134,0-3.276-1.179-3.276-3.387
			c0-1.914,1.363-3.165,3.276-3.165C126.952-64.767,128.277-63.625,128.277-61.603z"/>
	</g>
</g>
</svg>
