<?xml version="1.0" encoding="utf-8"?>
<!-- Generator: Adobe Illustrator 23.0.4, SVG Export Plug-In . SVG Version: 6.00 Build 0)  -->
<svg version="1.1"
	 id="svg2" xmlns:cc="http://creativecommons.org/ns#" xmlns:dc="http://purl.org/dc/elements/1.1/" xmlns:inkscape="http://www.inkscape.org/namespaces/inkscape" xmlns:rdf="http://www.w3.org/1999/02/22-rdf-syntax-ns#" xmlns:sodipodi="http://sodipodi.sourceforge.net/DTD/sodipodi-0.dtd" xmlns:svg="http://www.w3.org/2000/svg"
	 xmlns="http://www.w3.org/2000/svg" xmlns:xlink="http://www.w3.org/1999/xlink" x="0px" y="0px" viewBox="0 0 396.6 439.7"
	 style="enable-background:new 0 0 396.6 439.7;" xml:space="preserve">
<style type="text/css">
	.st0{fill:#333333;}
	.st1{fill:#FFFFFF;}
</style>
<defs>
	
	
		<inkscape:perspective  id="perspective2985" inkscape:persp3d-origin="372.04724 : 350.78739 : 1" inkscape:vp_x="0 : 526.18109 : 1" inkscape:vp_y="0 : 1000 : 0" inkscape:vp_z="744.09448 : 526.18109 : 1" sodipodi:type="inkscape:persp3d">
		</inkscape:perspective>
</defs>
<sodipodi:namedview  bordercolor="#666666" borderopacity="1.0" id="base" inkscape:current-layer="layer1" inkscape:cx="216.95411" inkscape:cy="435.582" inkscape:document-units="px" inkscape:pageopacity="0.0" inkscape:pageshadow="2" inkscape:window-height="1123" inkscape:window-maximized="1" inkscape:window-width="1920" inkscape:window-x="1911" inkscape:window-y="-9" inkscape:zoom="0.98994949" pagecolor="#ffffff" showgrid="false">
	</sodipodi:namedview>
<path class="st0" d="M361,219c-0.1-16.3,1.6-76.3-6.6-90.4c-8.2-14.1-61.3-42.1-75.5-50.1c-14.2-8.1-65.3-39.5-81.6-39.5
	c-16.3,0.1-67.1,32.1-81.2,40.3c-14.1,8.2-66.9,36.7-75,50.9c-8.1,14.2-5.8,74.1-5.7,90.4c0.1,16.3-1.6,76.3,6.6,90.4
	c8.2,14.1,61.3,42.1,75.5,50.1c14.2,8.1,65.3,39.5,81.6,39.5c16.3-0.1,67.1-32.1,81.2-40.3c14.1-8.2,66.9-36.7,75-50.9
	C363.4,295.3,361.1,235.3,361,219z"/>
<path class="st1" d="M281.3,304.2c0,8.2-2.6,12.5-9.9,15.5c-18.4,7.6-46.7,12.2-66.8,12.2h-4.3c-35.2,0-57.6-5.9-71.4-19.7
	c-14.8-14.5-19.4-36.5-19.4-70.7v-37.8c0-32.2,6.9-54.3,21.1-68.7c14.5-14.8,36.2-21.7,70.1-21.7h3c25,0,53.6,7.2,69.4,15.8
	c4.3,2.3,5.6,4.3,5.6,6.9c0,2.3-0.7,4.6-2.6,9.9l-8.6,22.4c-2.3,5.9-5.6,6.9-10.5,4.3c-16.8-8.6-32.2-13.2-51-13.2h-1.6
	c-14.8,0-25.3,4.3-30.9,12.2c-5.6,8.2-7.6,19.7-7.6,39.5v25c0,22,2.3,34.5,8.9,41.8c5.3,5.9,13.5,8.2,27,8.2h2
	c5.9,0,12.5-0.7,16.1-1.3c4.9-1,6.3-3,6.3-8.2V246H209c-7.9,0-9.9-1.3-9.9-8.9v-22c0-8.2,2-10.2,9.5-10.2h62.5
	c7.9,0,10.2,3.3,10.2,10.9V304.2z"/>
</svg>
