<?xml version="1.0" encoding="utf-8"?>
<!-- Generator: Adobe Illustrator 16.1.0, SVG Export Plug-In . SVG Version: 6.00 Build 0)  -->
<!DOCTYPE svg PUBLIC "-//W3C//DTD SVG 1.1//EN" "http://www.w3.org/Graphics/SVG/1.1/DTD/svg11.dtd">
<svg version="1.1" id="Layer_1" xmlns="http://www.w3.org/2000/svg" xmlns:xlink="http://www.w3.org/1999/xlink" x="0px" y="0px"
	 width="48px" height="48px" viewBox="0 0 48 48" enable-background="new 0 0 48 48" xml:space="preserve">
<g>
	<path fill="#333333" d="M21.979,15.918l-0.721,2.293c-1.025-0.76-2.138-1.141-3.338-1.141c-2.154,0-3.92,0.832-5.297,2.498
		s-2.066,3.764-2.066,6.293c0,3.387,1.598,5.08,4.793,5.08c1.28,0,2.385-0.385,3.314-1.152l0.732-4.119H16.96l0.359-2.043h4.84
		l-1.356,7.664c-1.657,1.209-3.767,1.812-6.329,1.812C10.157,33.104,8,30.846,8,26.33c0-3.371,0.956-6.117,2.87-8.238
		c1.914-2.123,4.416-3.184,7.506-3.184C20.106,14.908,21.308,15.244,21.979,15.918z"/>
	<path fill="#333333" d="M24.88,26.342c0-3.09,0.824-5.771,2.474-8.041s3.791-3.404,6.425-3.404c2.025,0,3.569,0.553,4.631,1.658
		C39.47,17.658,40,19.248,40,21.322c0,3.418-0.835,6.236-2.504,8.455c-1.669,2.217-3.981,3.326-6.937,3.326
		c-1.77,0-3.158-0.627-4.167-1.879C25.384,29.971,24.88,28.344,24.88,26.342z M27.438,26.006c0,1.521,0.302,2.725,0.907,3.609
		c0.604,0.885,1.471,1.326,2.6,1.326c1.994,0,3.577-0.924,4.75-2.773s1.76-4.049,1.76-6.594c0-3.02-1.297-4.527-3.892-4.527
		c-1.794,0-3.263,0.979-4.407,2.936C28.01,21.939,27.438,23.947,27.438,26.006z"/>
</g>
</svg>
