<?xml version="1.0" encoding="utf-8"?>
<!-- Generator: Adobe Illustrator 22.0.1, SVG Export Plug-In . SVG Version: 6.00 Build 0)  -->
<svg version="1.1" id="Layer_1" xmlns="http://www.w3.org/2000/svg" xmlns:xlink="http://www.w3.org/1999/xlink" x="0px" y="0px"
	 viewBox="-102.5 -68.5 48 48" enable-background="new -102.5 -68.5 48 48" xml:space="preserve">
<g>
	<path fill="#333333" d="M-87.704-42.858c-5.156,0-9.336,4.18-9.336,9.336s4.18,9.336,9.336,9.336s9.336-4.18,9.336-9.336
		S-82.548-42.858-87.704-42.858z M-87.704-29.298c-2.333,0-4.224-1.891-4.224-4.224s1.891-4.224,4.224-4.224
		s4.224,1.891,4.224,4.224S-85.371-29.298-87.704-29.298z"/>
	<path fill="#333333" d="M-89.035-64.814c-5.156,0-9.336,4.18-9.336,9.336s4.18,9.336,9.336,9.336s9.336-4.18,9.336-9.336
		S-83.879-64.814-89.035-64.814z M-89.035-51.254c-2.333,0-4.224-1.891-4.224-4.224c0-2.333,1.891-4.224,4.224-4.224
		s4.224,1.891,4.224,4.224C-84.811-53.146-86.702-51.254-89.035-51.254z"/>
	<path fill="#333333" d="M-67.965-53.429c-5.156,0-9.336,4.18-9.336,9.336s4.18,9.336,9.336,9.336s9.336-4.18,9.336-9.336
		S-62.809-53.429-67.965-53.429z M-67.965-39.869c-2.333,0-4.224-1.891-4.224-4.224c0-2.333,1.891-4.224,4.224-4.224
		c2.333,0,4.224,1.891,4.224,4.224C-63.741-41.761-65.632-39.869-67.965-39.869z"/>
	<rect x="-90.867" y="-47.934" fill="#333333" width="4.818" height="6.875"/>
	
		<rect x="-78.759" y="-52.506" transform="matrix(0.5 -0.866 0.866 0.5 4.2282 -90.8138)" fill="#333333" width="4.452" height="6.875"/>
	
		<rect x="-81.9" y="-62.306" transform="matrix(0.3991 0.9169 -0.9169 0.3991 -101.8718 37.7015)" fill="#333333" width="4.402" height="6.875"/>
</g>
</svg>
