<?xml version="1.0" encoding="utf-8"?>
<!-- Generator: Adobe Illustrator 16.1.0, SVG Export Plug-In . SVG Version: 6.00 Build 0)  -->
<!DOCTYPE svg PUBLIC "-//W3C//DTD SVG 1.1//EN" "http://www.w3.org/Graphics/SVG/1.1/DTD/svg11.dtd">
<svg version="1.1" id="Layer_1" xmlns="http://www.w3.org/2000/svg" xmlns:xlink="http://www.w3.org/1999/xlink" x="0px" y="0px"
	 width="48px" height="48px" viewBox="0 0 48 48" enable-background="new 0 0 48 48" xml:space="preserve">
<g>
	<polygon fill="#333333" points="15.142,24.713 12.14,18.199 14.692,12.297 11.384,12.297 9.396,17.193 9.396,12.297 6,12.297 
		6,24.713 9.396,24.713 9.396,19.158 11.548,24.713 	"/>
	<polygon fill="#333333" points="22.229,14.965 22.229,12.297 19.251,12.297 16.089,12.297 16.048,12.297 16.048,14.965 
		16.089,14.965 16.089,17.035 16.048,17.035 16.048,19.84 16.089,19.84 16.089,32.803 16.048,32.803 16.048,35.703 16.089,35.703 
		19.251,35.703 22.229,35.703 22.229,32.803 19.251,32.803 19.251,19.84 21.849,19.84 21.849,17.035 19.251,17.035 19.251,14.965 	
		"/>
	<path fill="#333333" d="M24.763,27.576l1.225-2.289l4.248,2.289c0,0-2.246,4.41-4.493,4.898c-2.247,0.492-4.608-0.959-5.065-2.328
		c-0.244-0.736-1.143-1.918,0.205-5.352c1.348-3.432,3.758-4.818,5.065-4.902c1.307-0.08,2.695,0.084,3.798,1.268
		c1.104,1.186,1.348,1.92,1.39,3.963l-3.431-0.369c0,0,0.04-0.57,0-1.182c-0.042-0.615-1.188-0.676-1.513-0.408
		c-0.449,0.365-2.899,3.756-2.614,5.514c0.059,0.355,0.45,0.855,1.389,0.406c0,0,0.695-0.285,0.859-0.938L24.763,27.576z"/>
	<path fill="#333333" d="M35.628,28.35l1.225-2.287l4.249,2.287c0,0-2.247,4.412-4.493,4.902c-2.247,0.488-4.609-0.959-5.065-2.33
		c-0.245-0.734-1.144-1.92,0.204-5.35s3.759-4.82,5.065-4.9c1.308-0.084,2.696,0.08,3.8,1.264c1.102,1.186,1.347,1.92,1.388,3.963
		l-3.431-0.367c0,0,0.041-0.57,0-1.186c-0.041-0.611-1.187-0.674-1.513-0.406c-0.448,0.365-2.899,3.758-2.613,5.514
		c0.058,0.355,0.45,0.857,1.389,0.408c0,0,0.694-0.285,0.858-0.939L35.628,28.35z"/>
</g>
</svg>
