<?xml version="1.0" encoding="utf-8"?>
<!-- Generator: Adobe Illustrator 22.0.1, SVG Export Plug-In . SVG Version: 6.00 Build 0)  -->
<svg version="1.1" id="Layer_1" xmlns="http://www.w3.org/2000/svg" xmlns:xlink="http://www.w3.org/1999/xlink" x="0px" y="0px"
	 viewBox="0 0 48 48" style="enable-background:new 0 0 48 48;" xml:space="preserve">
<style type="text/css">
	.st0{fill:none;}
	.st1{fill:#333333;}
	.st2{fill:#333333;stroke:#333333;stroke-width:3;stroke-miterlimit:10;}
</style>
<g>
	<path class="st0" d="M10.8,22.6c0,0.2,0,0.4,0,0.6h12.9v13.3c0.3,0,0.7,0.1,1,0.1c7.7,0,14-6.3,14-14c0-5.1-2.8-9.8-7.3-12.3
		c-0.2-0.1-0.4-0.2-0.6-0.3v6.1H18.7v-6.1c-0.5,0.2-1,0.5-1.5,0.8C13.2,13.4,10.8,17.8,10.8,22.6z"/>
	<path class="st1" d="M10.8,22.6c0-4.8,2.4-9.2,6.4-11.8c0.5-0.3,1-0.6,1.5-0.8V7.9c-0.9,0.4-1.7,0.8-2.5,1.3c-4.6,3-7.4,8-7.4,13.5
		c0,0.2,0,0.4,0,0.6h2C10.8,23,10.8,22.8,10.8,22.6z"/>
	<path class="st1" d="M32.4,8.6c-0.5-0.3-1-0.5-1.6-0.7v2.2c0.2,0.1,0.4,0.2,0.6,0.3c4.5,2.4,7.3,7.1,7.3,12.3c0,7.7-6.3,14-14,14
		c-0.3,0-0.7,0-1-0.1v2c0.3,0,0.7,0.1,1,0.1c8.8,0,16-7.2,16-16C40.7,16.8,37.5,11.4,32.4,8.6z"/>
	<path class="st2" d="M10.8,23.2h-2c0.3,8.2,6.8,14.8,14.9,15.3v-2C16.7,36,11.1,30.3,10.8,23.2z"/>
</g>
</svg>
