<?xml version="1.0" encoding="UTF-8"?><svg id="Layer_1" xmlns="http://www.w3.org/2000/svg" viewBox="0 0 48 48"><defs><style>.cls-1{fill:none;stroke:#b2b2b2;stroke-linecap:round;stroke-miterlimit:10;stroke-width:3px;}.cls-2{fill:#333;}.cls-3{fill:#b2b2b2;}</style></defs><path class="cls-1" d="M36.47,9.06c-6.36,.02-12.72-.5-19.08-.38-4.73,.09-11.13,.41-13.11,5.67-.98,2.59-.15,5.76,1.96,7.56,3.12,2.66,7.82,2.13,11.62,1.99,4.99-.18,9.98-.81,14.98-.43,2.18,.17,4.43,.56,6.23,1.82,1.91,1.34,3.12,3.64,3.12,5.98s-1.17,4.65-3.08,6c-3.54,2.53-8.56,2.02-12.68,2.06-5.58,.05-11.15-.27-16.73-.42"/><path class="cls-2" d="M36.94,28.15c.99,.69,1.63,1.92,1.63,3.13,0,1.11-.53,2.23-1.38,2.95l4.88,5.03c2.2-2.04,3.51-5,3.5-8.01-.01-3.46-1.78-6.84-4.62-8.83-.42-.29-.85-.54-1.29-.77l-3.74,5.97c.37,.14,.71,.32,1.01,.53Z"/><path class="cls-3" d="M16.41,20.45c-3.08,.14-6.26,.29-8.01-1.21-.11-.09-.21-.2-.3-.3l-5.68,4.11c.42,.55,.9,1.07,1.44,1.53,3.85,3.28,8.84,3.05,12.85,2.87v-7.01c-.1,0-.2,0-.3,.01Z"/><path class="cls-3" d="M27.48,12.36c2.56,.09,5.2,.17,7.85,.19l.1-7c-2.56-.01-5.16-.09-7.69-.19-2.31-.08-4.67-.16-7.04-.19l.11,7c2.23,.03,4.48,.1,6.68,.18Z"/><path class="cls-3" d="M15.57,35.6l-.15,7c3.18,.11,6.44,.22,9.7,.22l-.22-7c-3.11,0-6.26-.11-9.34-.22Z"/></svg>