<?xml version="1.0" encoding="UTF-8"?><svg id="Layer_1" xmlns="http://www.w3.org/2000/svg" viewBox="0 0 48 48"><defs><style>.cls-1{fill:#b2b2b2;}</style></defs><path class="cls-1" d="M14.47,22.02c0-.8-.66-1.45-1.47-1.45H4.57c-.81,0-1.47,.65-1.47,1.45,0,.44,.2,.82,.51,1.09v14.25c0,2.93,2.32,5.3,5.18,5.3s5.18-2.37,5.18-5.3v-14.25c.31-.27,.51-.65,.51-1.09Z"/><path d="M4.51,37.06c0,2.41,1.91,4.37,4.27,4.37s4.27-1.96,4.27-4.37v-9.27H4.51v9.27Z"/><path class="cls-1" d="M44.9,14.1c0-.8-.66-1.45-1.47-1.45h-8.44c-.81,0-1.47,.65-1.47,1.45,0,.44,.2,.82,.51,1.09v22.16c0,2.93,2.32,5.3,5.18,5.3s5.18-2.37,5.18-5.3V15.19c.31-.27,.51-.65,.51-1.09Z"/><path d="M34.94,23.22v13.82c0,2.41,1.91,4.37,4.27,4.37s4.27-1.96,4.27-4.37v-13.82h-8.55Z"/><path class="cls-1" d="M29.69,6.8c0-.8-.66-1.45-1.47-1.45h-8.44c-.81,0-1.47,.65-1.47,1.45,0,.44,.2,.82,.51,1.09v29.46c0,2.93,2.32,5.3,5.18,5.3s5.18-2.37,5.18-5.3V7.89c.31-.27,.51-.65,.51-1.09Z"/><path d="M19.73,17.14v19.89c0,2.41,1.91,4.37,4.27,4.37s4.27-1.96,4.27-4.37V17.14h-8.55Z"/></svg>