<?xml version="1.0" encoding="UTF-8"?><svg id="Layer_1" xmlns="http://www.w3.org/2000/svg" viewBox="0 0 48 48"><defs><style>.cls-1{fill:#666;}.cls-2{fill:#333;}.cls-3{fill:#b2b2b2;}</style></defs><path class="cls-3" d="M40.73,39.34c.42,1.35,.51,2.78,.29,4.18-.2,1.13-1.51,.78-2.33,.75-.76-.05-1.52-.04-2.27,0-1.07,.04-2.1,.3-3.16,.42-.45,.02-.91,.03-1.36,.03-.58,0-1.16-.01-1.73-.02-1.43-.05-2.84-.31-4.27-.24-.73-.01-1.46,.03-2.18,.08-.82,.05-1.63,.1-2.46,.07-2.82-.09-5.62-.41-8.45-.25-.82-.1-1.65-.07-2.47-.04-.86,.03-1.73,.06-2.59-.06-1.56-.27-.68-1.52-.03-2.28,.79-1.27,1.82-2.36,2.74-3.53,2.12-2.3,3.84-5.07,4.97-7.98,1.03-2.65,1.85-5.32,3.79-7.49,2.95-3.3,9.02-5.55,12.86-2.14,.99,.88,1.56,2.13,2.1,3.34,.93,2.09,1.79,4.23,2.79,6.28,.9,1.84,2.18,3.47,2.99,5.35,.31,1.16,.43,2.37,.78,3.52Z"/><path class="cls-1" d="M23.31,33.6c-1.56,0-1.98-2.08-2.25-3.25-.17-.7-.28-1.45-.56-2.12-.38-.89-1.21-1.45-1.75-2.24-.31-.47-.5-1.04-.4-1.59,.14-.74,.74-1.26,1.2-1.81,.53-.64,1.08-1.28,1.62-1.91,.28-.32,.62-.59,1-.79,1.67-.89,4.37-.82,6.21-.64,1.82,.17,3.87,.92,4.67,2.7,.18,.39,.29,.81,.22,1.23-.1,.65-.61,1.16-1.2,1.46s-1.24,.42-1.87,.57c-2.17,.51-2.8,1.73-3.48,3.7-.43,1.25-1.8,4.64-3.37,4.68-.02,0-.03,0-.05,0Z"/><path class="cls-2" d="M23.85,20.87c-.62-.08-1.39-.04-1.98-.21-.13-.04-.27-.1-.33-.21-.17-.34,1.14-.88,1.44-.99,.65-.24,1.37-.29,2.08-.29,1.01-.02,2.03-.14,3.04-.04,.73,.07,1.45,.21,2.12,.46,.34,.13,.68,.28,.99,.46,.1,.06,.39,.16,.38,.29-.01,.17-.5,.3-.65,.34-1.06,.29-2.24,.26-3.34,.24-.45,0-.9,0-1.35,0-.26,0-.52,0-.77,0-.54,0-1.09,0-1.63-.05Z"/><path class="cls-1" d="M32.78,14.59c.02-1.25-.98-2.28-2.24-2.3-1.25-.02-2.28,.98-2.3,2.24-.02,1.25,.98,2.28,2.24,2.3,1.25,.02,2.29-.98,2.3-2.23Z"/><path class="cls-1" d="M24.78,11.4c.02-1.25-.98-2.28-2.24-2.3-1.25-.02-2.28,.98-2.3,2.24-.02,1.25,.98,2.28,2.24,2.3,1.25,.02,2.29-.98,2.3-2.23Z"/><path class="cls-1" d="M30.51,5.58c.02-1.25-.98-2.28-2.24-2.3-1.25-.02-2.28,.98-2.3,2.24-.02,1.25,.98,2.28,2.24,2.3,1.25,.02,2.29-.98,2.3-2.23Z"/><path class="cls-1" d="M24.78,38.18c.02-1.25-.98-2.28-2.24-2.3-1.25-.02-2.28,.98-2.3,2.24-.02,1.25,.98,2.28,2.24,2.3,1.25,.02,2.29-.98,2.3-2.23Z"/></svg>